<?xml version="1.0" encoding="UTF-8"?>
<svg xmlns="http://www.w3.org/2000/svg" xmlns:xlink="http://www.w3.org/1999/xlink" width="841.89pt" height="595.28pt" viewBox="0 0 841.89 595.28" version="1.2">
<defs>
<g>
<symbol overflow="visible" id="glyph0-0">
<path style="stroke:none;" d="M 1.203125 5.484375 L 10.78125 5.484375 L 10.78125 -20.78125 L 1.203125 -20.78125 Z M 2.390625 4.296875 L 2.390625 -19.578125 L 9.59375 -19.578125 L 9.59375 4.296875 Z M 2.390625 4.296875 "/>
</symbol>
<symbol overflow="visible" id="glyph0-1">
<path style="stroke:none;" d="M 11.53125 -7.171875 L 11.53125 -9.921875 L 5.015625 -9.921875 L 5.015625 -14.6875 L 12.78125 -14.6875 L 12.78125 -17.515625 L 1.9375 -17.515625 L 1.9375 0 L 5.015625 0 L 5.015625 -7.171875 Z M 11.53125 -7.171875 "/>
</symbol>
<symbol overflow="visible" id="glyph0-2">
<path style="stroke:none;" d="M 3.453125 0 L 4.859375 -4.046875 L 11.40625 -4.046875 L 12.828125 0 L 16.0625 0 L 9.734375 -17.515625 L 6.59375 -17.515625 L 0.265625 0 Z M 7.765625 -12.296875 C 7.9375 -12.78125 8.078125 -13.296875 8.15625 -13.640625 C 8.203125 -13.28125 8.359375 -12.75 8.515625 -12.296875 L 10.515625 -6.640625 L 5.78125 -6.640625 Z M 7.765625 -12.296875 "/>
</symbol>
<symbol overflow="visible" id="glyph0-3">
<path style="stroke:none;" d="M 1.9375 0 L 9.03125 0 C 12.65625 0 14.734375 -1.75 14.734375 -4.75 C 14.734375 -6.78125 13.8125 -8.171875 11.953125 -8.765625 C 13.609375 -9.46875 14.484375 -10.859375 14.484375 -12.796875 C 14.484375 -15.71875 12.375 -17.515625 8.921875 -17.515625 L 1.9375 -17.515625 Z M 8.65625 -14.8125 C 10.375 -14.8125 11.34375 -14 11.34375 -12.484375 C 11.34375 -10.9375 10.40625 -10.046875 8.71875 -10.046875 L 5.015625 -10.046875 L 5.015625 -14.8125 Z M 8.921875 -7.453125 C 10.625 -7.453125 11.59375 -6.609375 11.59375 -5.125 C 11.59375 -3.546875 10.640625 -2.703125 8.921875 -2.703125 L 5.015625 -2.703125 L 5.015625 -7.453125 Z M 8.921875 -7.453125 "/>
</symbol>
<symbol overflow="visible" id="glyph0-4">
<path style="stroke:none;" d="M 5.015625 -17.515625 L 1.9375 -17.515625 L 1.9375 0 L 5.015625 0 Z M 5.015625 -17.515625 "/>
</symbol>
<symbol overflow="visible" id="glyph0-5">
<path style="stroke:none;" d="M 17.921875 -8.765625 C 17.921875 -14.125 14.421875 -17.828125 9.421875 -17.828125 C 4.40625 -17.828125 0.9375 -14.09375 0.9375 -8.765625 C 0.9375 -3.421875 4.390625 0.28125 9.390625 0.28125 C 14.421875 0.28125 17.921875 -3.453125 17.921875 -8.765625 Z M 14.6875 -8.765625 C 14.6875 -5.078125 12.625 -2.65625 9.421875 -2.65625 C 6.203125 -2.65625 4.140625 -5.03125 4.140625 -8.765625 C 4.140625 -12.515625 6.203125 -14.890625 9.421875 -14.890625 C 12.625 -14.890625 14.6875 -12.515625 14.6875 -8.765625 Z M 14.6875 -8.765625 "/>
</symbol>
<symbol overflow="visible" id="glyph0-6">
<path style="stroke:none;" d=""/>
</symbol>
<symbol overflow="visible" id="glyph0-7">
<path style="stroke:none;" d="M 4.96875 0 L 4.96875 -12.421875 L 13.203125 0 L 16.234375 0 L 16.234375 -17.515625 L 13.203125 -17.515625 L 13.203125 -5.109375 L 4.984375 -17.515625 L 1.9375 -17.515625 L 1.9375 0 Z M 4.96875 0 "/>
</symbol>
<symbol overflow="visible" id="glyph0-8">
<path style="stroke:none;" d="M 13.34375 0 L 13.34375 -2.828125 L 4.484375 -2.828125 L 13.203125 -14.78125 L 13.203125 -17.515625 L 0.9375 -17.515625 L 0.9375 -14.6875 L 9.390625 -14.6875 L 0.75 -2.859375 L 0.75 0 Z M 13.34375 0 "/>
</symbol>
<symbol overflow="visible" id="glyph0-9">
<path style="stroke:none;" d="M 5.015625 0 L 5.015625 -6.546875 L 8.765625 -6.546875 L 11.75 0 L 15.09375 0 L 11.765625 -7.1875 C 13.828125 -8.03125 14.9375 -9.703125 14.9375 -12.0625 C 14.9375 -15.5 12.609375 -17.515625 8.625 -17.515625 L 1.9375 -17.515625 L 1.9375 0 Z M 5.015625 -14.78125 L 8.625 -14.78125 C 10.5625 -14.78125 11.71875 -13.8125 11.71875 -12.0625 C 11.71875 -10.28125 10.5625 -9.25 8.625 -9.25 L 5.015625 -9.25 Z M 5.015625 -14.78125 "/>
</symbol>
<symbol overflow="visible" id="glyph0-10">
<path style="stroke:none;" d="M 2.90625 0 L 9.75 -17.5 L 6.828125 -17.5 L 0 0 Z M 2.90625 0 "/>
</symbol>
<symbol overflow="visible" id="glyph1-0">
<path style="stroke:none;" d="M 3.15625 14.4375 L 28.375 14.4375 L 28.375 -54.65625 L 3.15625 -54.65625 Z M 6.3125 11.28125 L 6.3125 -51.515625 L 25.21875 -51.515625 L 25.21875 11.28125 Z M 6.3125 11.28125 "/>
</symbol>
<symbol overflow="visible" id="glyph1-1">
<path style="stroke:none;" d=""/>
</symbol>
<symbol overflow="visible" id="glyph1-2">
<path style="stroke:none;" d="M 7.8125 -37.390625 C 10.34375 -37.390625 12.421875 -39.46875 12.421875 -42.046875 C 12.421875 -44.640625 10.34375 -46.65625 7.8125 -46.65625 C 5.171875 -46.65625 3.09375 -44.640625 3.09375 -42.046875 C 3.09375 -39.46875 5.171875 -37.390625 7.8125 -37.390625 Z M 3.96875 0 L 11.65625 0 L 11.65625 -31.140625 L 3.96875 -31.140625 Z M 3.96875 0 "/>
</symbol>
<symbol overflow="visible" id="glyph1-3">
<path style="stroke:none;" d="M 16.765625 0.8125 C 21.5 0.8125 25.53125 -1.265625 27.421875 -4.859375 L 27.9375 0 L 34.984375 0 L 34.984375 -46.90625 L 27.359375 -46.90625 L 27.359375 -27.171875 C 25.40625 -30.265625 21.5625 -32.09375 17.21875 -32.09375 C 7.8125 -32.09375 2.140625 -25.15625 2.140625 -15.453125 C 2.140625 -5.796875 7.75 0.8125 16.765625 0.8125 Z M 18.46875 -6.234375 C 13.109375 -6.234375 9.828125 -10.15625 9.828125 -15.703125 C 9.828125 -21.25 13.109375 -25.21875 18.46875 -25.21875 C 23.828125 -25.21875 27.296875 -21.3125 27.296875 -15.703125 C 27.296875 -10.09375 23.828125 -6.234375 18.46875 -6.234375 Z M 18.46875 -6.234375 "/>
</symbol>
<symbol overflow="visible" id="glyph1-4">
<path style="stroke:none;" d="M 17.90625 0.8125 C 26.03125 0.8125 31.71875 -3.28125 33.03125 -10.09375 L 25.90625 -10.09375 C 25.03125 -7.125 22.25 -5.484375 18.03125 -5.484375 C 12.921875 -5.484375 10.03125 -8.265625 9.453125 -13.75 L 32.90625 -13.8125 L 32.90625 -16.140625 C 32.90625 -25.84375 26.984375 -32.09375 17.65625 -32.09375 C 8.515625 -32.09375 2.140625 -25.34375 2.140625 -15.578125 C 2.140625 -5.921875 8.640625 0.8125 17.90625 0.8125 Z M 17.71875 -25.78125 C 22.3125 -25.78125 25.28125 -22.953125 25.28125 -18.65625 L 9.640625 -18.65625 C 10.40625 -23.328125 13.171875 -25.78125 17.71875 -25.78125 Z M 17.71875 -25.78125 "/>
</symbol>
<symbol overflow="visible" id="glyph1-5">
<path style="stroke:none;" d="M 11.65625 0 L 11.65625 -16.765625 C 11.65625 -21.8125 14.5625 -25.09375 19.296875 -25.09375 C 23.265625 -25.09375 25.84375 -22.578125 25.84375 -17.34375 L 25.84375 0 L 33.546875 0 L 33.546875 -19.171875 C 33.546875 -27.234375 29.5 -32.09375 21.6875 -32.09375 C 17.46875 -32.09375 13.6875 -30.265625 11.734375 -27.109375 L 11.09375 -31.140625 L 3.96875 -31.140625 L 3.96875 0 Z M 11.65625 0 "/>
</symbol>
<symbol overflow="visible" id="glyph1-6">
<path style="stroke:none;" d="M 14.5625 0 L 14.5625 -24.71875 L 20.609375 -24.71875 L 20.609375 -31.140625 L 14.5625 -31.140625 L 14.5625 -40.859375 L 6.875 -40.859375 L 6.875 -31.140625 L 0.875 -31.140625 L 0.875 -24.71875 L 6.875 -24.71875 L 6.875 0 Z M 14.5625 0 "/>
</symbol>
<symbol overflow="visible" id="glyph1-7">
<path style="stroke:none;" d="M 20.484375 -34.859375 L 15.828125 -44.265625 L 8.703125 -44.265625 L 14.8125 -34.859375 Z M 13.234375 0.8125 C 18.09375 0.8125 22.3125 -1.390625 23.640625 -4.609375 L 24.203125 0 L 30.953125 0 L 30.953125 -18.921875 C 30.953125 -27.546875 25.78125 -32.09375 17.40625 -32.09375 C 8.953125 -32.09375 3.40625 -27.671875 3.40625 -20.9375 L 9.96875 -20.9375 C 9.96875 -24.203125 12.484375 -26.09375 17.015625 -26.09375 C 20.9375 -26.09375 23.453125 -24.40625 23.453125 -20.171875 L 23.453125 -19.484375 L 14.125 -18.78125 C 6.75 -18.21875 2.578125 -14.625 2.578125 -8.890625 C 2.578125 -3.03125 6.625 0.8125 13.234375 0.8125 Z M 15.765625 -4.984375 C 12.296875 -4.984375 10.40625 -6.375 10.40625 -9.203125 C 10.40625 -11.734375 12.234375 -13.296875 17.015625 -13.75 L 23.515625 -14.25 L 23.515625 -12.609375 C 23.515625 -7.8125 20.484375 -4.984375 15.765625 -4.984375 Z M 15.765625 -4.984375 "/>
</symbol>
<symbol overflow="visible" id="glyph1-8">
<path style="stroke:none;" d="M 12.796875 0 L 20.359375 0 L 33.359375 -31.140625 L 25.40625 -31.140625 L 19.734375 -16.828125 C 18.40625 -13.421875 17.28125 -10.15625 16.828125 -8.203125 C 16.453125 -9.890625 15.390625 -13.109375 14.0625 -16.828125 L 8.640625 -31.140625 L 0.4375 -31.140625 Z M 12.796875 0 "/>
</symbol>
<symbol overflow="visible" id="glyph1-9">
<path style="stroke:none;" d="M 1.578125 -9.453125 C 1.578125 -3.34375 6.5 0.8125 14.25 0.8125 C 21.9375 0.8125 27.296875 -3.09375 27.296875 -9.390625 C 27.296875 -14.1875 24.65625 -16.578125 19.421875 -17.78125 L 13.8125 -19.109375 C 11.15625 -19.734375 9.765625 -20.875 9.765625 -22.640625 C 9.765625 -24.96875 11.53125 -26.359375 14.5625 -26.359375 C 17.53125 -26.359375 19.296875 -24.65625 19.359375 -22 L 26.671875 -22 C 26.609375 -28.0625 21.875 -32.09375 14.875 -32.09375 C 7.6875 -32.09375 2.515625 -28.4375 2.515625 -22.3125 C 2.515625 -17.34375 5.234375 -14.6875 10.84375 -13.421875 L 16.453125 -12.109375 C 19.234375 -11.46875 20.046875 -10.34375 20.046875 -8.765625 C 20.046875 -6.5 18.09375 -5.046875 14.5 -5.046875 C 10.96875 -5.046875 8.953125 -6.75 8.890625 -9.453125 Z M 1.578125 -9.453125 "/>
</symbol>
<symbol overflow="visible" id="glyph1-10">
<path style="stroke:none;" d="M 13.234375 0.8125 C 18.09375 0.8125 22.3125 -1.390625 23.640625 -4.609375 L 24.203125 0 L 30.953125 0 L 30.953125 -18.921875 C 30.953125 -27.546875 25.78125 -32.09375 17.40625 -32.09375 C 8.953125 -32.09375 3.40625 -27.671875 3.40625 -20.9375 L 9.96875 -20.9375 C 9.96875 -24.203125 12.484375 -26.09375 17.015625 -26.09375 C 20.9375 -26.09375 23.453125 -24.40625 23.453125 -20.171875 L 23.453125 -19.484375 L 14.125 -18.78125 C 6.75 -18.21875 2.578125 -14.625 2.578125 -8.890625 C 2.578125 -3.03125 6.625 0.8125 13.234375 0.8125 Z M 15.765625 -4.984375 C 12.296875 -4.984375 10.40625 -6.375 10.40625 -9.203125 C 10.40625 -11.734375 12.234375 -13.296875 17.015625 -13.75 L 23.515625 -14.25 L 23.515625 -12.609375 C 23.515625 -7.8125 20.484375 -4.984375 15.765625 -4.984375 Z M 15.765625 -4.984375 "/>
</symbol>
<symbol overflow="visible" id="glyph2-0">
<path style="stroke:none;" d="M 0.40625 1.828125 L 3.59375 1.828125 L 3.59375 -6.921875 L 0.40625 -6.921875 Z M 0.796875 1.421875 L 0.796875 -6.515625 L 3.1875 -6.515625 L 3.1875 1.421875 Z M 0.796875 1.421875 "/>
</symbol>
<symbol overflow="visible" id="glyph2-1">
<path style="stroke:none;" d="M 2.125 0.109375 C 2.71875 0.109375 3.234375 -0.15625 3.46875 -0.609375 L 3.53125 0 L 4.4375 0 L 4.4375 -5.9375 L 3.46875 -5.9375 L 3.46875 -3.4375 C 3.21875 -3.828125 2.734375 -4.0625 2.1875 -4.0625 C 0.984375 -4.0625 0.265625 -3.1875 0.265625 -1.953125 C 0.265625 -0.734375 0.984375 0.109375 2.125 0.109375 Z M 2.34375 -0.796875 C 1.65625 -0.796875 1.25 -1.28125 1.25 -1.984375 C 1.25 -2.6875 1.65625 -3.1875 2.34375 -3.1875 C 3.015625 -3.1875 3.453125 -2.703125 3.453125 -1.984375 C 3.453125 -1.28125 3.015625 -0.796875 2.34375 -0.796875 Z M 2.34375 -0.796875 "/>
</symbol>
<symbol overflow="visible" id="glyph2-2">
<path style="stroke:none;" d="M 2.265625 0.109375 C 3.296875 0.109375 4.015625 -0.421875 4.1875 -1.28125 L 3.28125 -1.28125 C 3.171875 -0.90625 2.8125 -0.6875 2.28125 -0.6875 C 1.640625 -0.6875 1.265625 -1.046875 1.203125 -1.734375 L 4.171875 -1.75 L 4.171875 -2.046875 C 4.171875 -3.28125 3.421875 -4.0625 2.234375 -4.0625 C 1.078125 -4.0625 0.265625 -3.203125 0.265625 -1.96875 C 0.265625 -0.75 1.09375 0.109375 2.265625 0.109375 Z M 2.25 -3.265625 C 2.828125 -3.265625 3.203125 -2.90625 3.203125 -2.359375 L 1.21875 -2.359375 C 1.3125 -2.953125 1.671875 -3.265625 2.25 -3.265625 Z M 2.25 -3.265625 "/>
</symbol>
<symbol overflow="visible" id="glyph2-3">
<path style="stroke:none;" d="M 0.203125 -1.203125 C 0.203125 -0.421875 0.828125 0.109375 1.796875 0.109375 C 2.78125 0.109375 3.453125 -0.390625 3.453125 -1.1875 C 3.453125 -1.796875 3.125 -2.09375 2.453125 -2.25 L 1.75 -2.421875 C 1.40625 -2.5 1.234375 -2.640625 1.234375 -2.859375 C 1.234375 -3.15625 1.46875 -3.34375 1.84375 -3.34375 C 2.21875 -3.34375 2.4375 -3.125 2.453125 -2.78125 L 3.375 -2.78125 C 3.375 -3.546875 2.765625 -4.0625 1.890625 -4.0625 C 0.96875 -4.0625 0.3125 -3.59375 0.3125 -2.828125 C 0.3125 -2.203125 0.65625 -1.859375 1.375 -1.703125 L 2.078125 -1.53125 C 2.4375 -1.453125 2.53125 -1.3125 2.53125 -1.109375 C 2.53125 -0.828125 2.296875 -0.640625 1.84375 -0.640625 C 1.390625 -0.640625 1.140625 -0.859375 1.125 -1.203125 Z M 0.203125 -1.203125 "/>
</symbol>
<symbol overflow="visible" id="glyph2-4">
<path style="stroke:none;" d="M 0.984375 -4.734375 C 1.3125 -4.734375 1.578125 -5 1.578125 -5.328125 C 1.578125 -5.65625 1.3125 -5.90625 0.984375 -5.90625 C 0.65625 -5.90625 0.390625 -5.65625 0.390625 -5.328125 C 0.390625 -5 0.65625 -4.734375 0.984375 -4.734375 Z M 0.5 0 L 1.484375 0 L 1.484375 -3.9375 L 0.5 -3.9375 Z M 0.5 0 "/>
</symbol>
<symbol overflow="visible" id="glyph2-5">
<path style="stroke:none;" d="M 0.28125 -2.0625 C 0.28125 -0.921875 1.015625 -0.078125 2.125 -0.078125 C 2.703125 -0.078125 3.1875 -0.3125 3.4375 -0.671875 L 3.4375 -0.03125 C 3.4375 0.625 3 1.046875 2.328125 1.046875 C 1.734375 1.046875 1.34375 0.75 1.28125 0.234375 L 0.296875 0.234375 C 0.421875 1.296875 1.203125 1.9375 2.328125 1.9375 C 3.609375 1.9375 4.40625 1.125 4.40625 -0.203125 L 4.40625 -3.9375 L 3.5 -3.9375 L 3.4375 -3.40625 C 3.203125 -3.828125 2.75 -4.078125 2.15625 -4.078125 C 1.03125 -4.078125 0.28125 -3.203125 0.28125 -2.0625 Z M 1.265625 -2.078125 C 1.265625 -2.734375 1.671875 -3.21875 2.328125 -3.21875 C 3 -3.21875 3.40625 -2.75 3.40625 -2.078125 C 3.40625 -1.390625 3 -0.921875 2.328125 -0.921875 C 1.6875 -0.921875 1.265625 -1.421875 1.265625 -2.078125 Z M 1.265625 -2.078125 "/>
</symbol>
<symbol overflow="visible" id="glyph2-6">
<path style="stroke:none;" d="M 1.484375 0 L 1.484375 -2.125 C 1.484375 -2.765625 1.84375 -3.171875 2.4375 -3.171875 C 2.953125 -3.171875 3.28125 -2.859375 3.28125 -2.203125 L 3.28125 0 L 4.25 0 L 4.25 -2.421875 C 4.25 -3.453125 3.734375 -4.0625 2.75 -4.0625 C 2.21875 -4.0625 1.734375 -3.828125 1.484375 -3.4375 L 1.40625 -3.9375 L 0.5 -3.9375 L 0.5 0 Z M 1.484375 0 "/>
</symbol>
<symbol overflow="visible" id="glyph2-7">
<path style="stroke:none;" d=""/>
</symbol>
<symbol overflow="visible" id="glyph2-8">
<path style="stroke:none;" d="M 0.265625 -1.984375 C 0.265625 -0.734375 1.046875 0.109375 2.25 0.109375 C 3.28125 0.109375 4.046875 -0.53125 4.171875 -1.4375 L 3.1875 -1.4375 C 3.078125 -1.015625 2.734375 -0.78125 2.25 -0.78125 C 1.625 -0.78125 1.25 -1.234375 1.25 -1.984375 C 1.25 -2.71875 1.65625 -3.1875 2.28125 -3.1875 C 2.75 -3.1875 3.078125 -2.96875 3.1875 -2.515625 L 4.15625 -2.515625 C 4.0625 -3.46875 3.328125 -4.0625 2.25 -4.0625 C 1.078125 -4.0625 0.265625 -3.203125 0.265625 -1.984375 Z M 0.265625 -1.984375 "/>
</symbol>
<symbol overflow="visible" id="glyph2-9">
<path style="stroke:none;" d="M 0.265625 -1.984375 C 0.265625 -0.75 1.15625 0.09375 2.375 0.09375 C 3.59375 0.09375 4.484375 -0.75 4.484375 -1.984375 C 4.484375 -3.203125 3.59375 -4.0625 2.375 -4.0625 C 1.15625 -4.0625 0.265625 -3.203125 0.265625 -1.984375 Z M 1.25 -1.984375 C 1.25 -2.703125 1.703125 -3.1875 2.375 -3.1875 C 3.046875 -3.1875 3.515625 -2.703125 3.515625 -1.984375 C 3.515625 -1.265625 3.046875 -0.78125 2.375 -0.78125 C 1.703125 -0.78125 1.25 -1.265625 1.25 -1.984375 Z M 1.25 -1.984375 "/>
</symbol>
<symbol overflow="visible" id="glyph2-10">
<path style="stroke:none;" d="M 0.5 1.828125 L 1.484375 1.828125 L 1.484375 -0.53125 C 1.71875 -0.125 2.234375 0.109375 2.828125 0.109375 C 4 0.109375 4.671875 -0.796875 4.671875 -2.015625 C 4.671875 -3.25 3.9375 -4.0625 2.828125 -4.0625 C 2.234375 -4.0625 1.703125 -3.796875 1.46875 -3.34375 L 1.40625 -3.9375 L 0.5 -3.9375 Z M 1.484375 -1.96875 C 1.484375 -2.6875 1.921875 -3.171875 2.59375 -3.171875 C 3.28125 -3.171875 3.6875 -2.671875 3.6875 -1.96875 C 3.6875 -1.265625 3.28125 -0.78125 2.59375 -0.78125 C 1.921875 -0.78125 1.484375 -1.265625 1.484375 -1.96875 Z M 1.484375 -1.96875 "/>
</symbol>
<symbol overflow="visible" id="glyph2-11">
<path style="stroke:none;" d="M 1.84375 0 L 1.84375 -3.125 L 2.609375 -3.125 L 2.609375 -3.9375 L 1.84375 -3.9375 L 1.84375 -5.171875 L 0.875 -5.171875 L 0.875 -3.9375 L 0.109375 -3.9375 L 0.109375 -3.125 L 0.875 -3.125 L 0.875 0 Z M 1.84375 0 "/>
</symbol>
<symbol overflow="visible" id="glyph2-12">
<path style="stroke:none;" d="M 1.671875 0.109375 C 2.296875 0.109375 2.828125 -0.171875 3 -0.578125 L 3.0625 0 L 3.921875 0 L 3.921875 -2.390625 C 3.921875 -3.484375 3.265625 -4.0625 2.203125 -4.0625 C 1.140625 -4.0625 0.4375 -3.5 0.4375 -2.65625 L 1.265625 -2.65625 C 1.265625 -3.0625 1.578125 -3.3125 2.15625 -3.3125 C 2.65625 -3.3125 2.96875 -3.09375 2.96875 -2.5625 L 2.96875 -2.46875 L 1.78125 -2.375 C 0.859375 -2.3125 0.328125 -1.859375 0.328125 -1.125 C 0.328125 -0.390625 0.84375 0.109375 1.671875 0.109375 Z M 2 -0.625 C 1.5625 -0.625 1.3125 -0.8125 1.3125 -1.171875 C 1.3125 -1.484375 1.546875 -1.6875 2.15625 -1.734375 L 2.984375 -1.796875 L 2.984375 -1.59375 C 2.984375 -0.984375 2.59375 -0.625 2 -0.625 Z M 2 -0.625 "/>
</symbol>
<symbol overflow="visible" id="glyph2-13">
<path style="stroke:none;" d="M 1.484375 0 L 1.484375 -2.234375 C 1.484375 -2.875 1.859375 -3.171875 2.3125 -3.171875 C 2.78125 -3.171875 3.078125 -2.875 3.078125 -2.328125 L 3.078125 0 L 4.046875 0 L 4.046875 -2.234375 C 4.046875 -2.875 4.40625 -3.1875 4.875 -3.1875 C 5.34375 -3.1875 5.640625 -2.890625 5.640625 -2.328125 L 5.640625 0 L 6.609375 0 L 6.609375 -2.578125 C 6.609375 -3.484375 6.078125 -4.0625 5.125 -4.0625 C 4.53125 -4.0625 4.0625 -3.765625 3.859375 -3.3125 C 3.65625 -3.765625 3.234375 -4.0625 2.640625 -4.0625 C 2.078125 -4.0625 1.671875 -3.8125 1.484375 -3.484375 L 1.390625 -3.9375 L 0.5 -3.9375 L 0.5 0 Z M 1.484375 0 "/>
</symbol>
<symbol overflow="visible" id="glyph2-14">
<path style="stroke:none;" d="M 2.984375 -3.953125 C 2.8125 -4 2.6875 -4.015625 2.546875 -4.015625 C 2.015625 -4.015625 1.640625 -3.75 1.484375 -3.359375 L 1.421875 -3.9375 L 0.5 -3.9375 L 0.5 0 L 1.484375 0 L 1.484375 -1.921875 C 1.484375 -2.6875 1.921875 -3.0625 2.625 -3.0625 L 2.984375 -3.0625 Z M 2.984375 -3.953125 "/>
</symbol>
<symbol overflow="visible" id="glyph2-15">
<path style="stroke:none;" d="M 1.484375 0 L 1.484375 -2.15625 C 1.484375 -2.75 1.84375 -3.171875 2.453125 -3.171875 C 2.953125 -3.171875 3.28125 -2.859375 3.28125 -2.203125 L 3.28125 0 L 4.25 0 L 4.25 -2.421875 C 4.25 -3.453125 3.734375 -4.0625 2.765625 -4.0625 C 2.203125 -4.0625 1.734375 -3.8125 1.484375 -3.4375 L 1.484375 -5.9375 L 0.5 -5.9375 L 0.5 0 Z M 1.484375 0 "/>
</symbol>
</g>
<clipPath id="clip1">
  <path d="M 0.453125 0 L 841.328125 0 L 841.328125 594.5625 L 0.453125 594.5625 Z M 0.453125 0 "/>
</clipPath>
</defs>
<g id="surface1">
<g clip-path="url(#clip1)" clip-rule="nonzero">
<path style=" stroke:none;fill-rule:nonzero;fill:rgb(82.745361%,82.43103%,82.50885%);fill-opacity:1;" d="M 0.453125 594.5625 L 841.328125 594.5625 L 841.328125 0 L 0.453125 0 Z M 0.453125 594.5625 "/>
</g>
<g style="fill:rgb(13.729858%,12.159729%,12.548828%);fill-opacity:1;">
  <use xlink:href="#glyph0-1" x="69.112746" y="277.803393"/>
</g>
<g style="fill:rgb(13.729858%,12.159729%,12.548828%);fill-opacity:1;">
  <use xlink:href="#glyph0-2" x="81.625612" y="277.803393"/>
  <use xlink:href="#glyph0-3" x="97.949867" y="277.803393"/>
  <use xlink:href="#glyph0-4" x="113.554993" y="277.803393"/>
  <use xlink:href="#glyph0-5" x="120.506585" y="277.803393"/>
  <use xlink:href="#glyph0-6" x="139.347796" y="277.803393"/>
  <use xlink:href="#glyph0-7" x="145.819968" y="277.803393"/>
  <use xlink:href="#glyph0-2" x="163.989991" y="277.803393"/>
  <use xlink:href="#glyph0-8" x="180.314246" y="277.803393"/>
  <use xlink:href="#glyph0-8" x="194.409198" y="277.803393"/>
  <use xlink:href="#glyph0-2" x="208.50415" y="277.803393"/>
  <use xlink:href="#glyph0-9" x="224.828406" y="277.803393"/>
  <use xlink:href="#glyph0-4" x="240.88898" y="277.803393"/>
  <use xlink:href="#glyph0-6" x="247.840572" y="277.803393"/>
  <use xlink:href="#glyph0-10" x="254.312744" y="277.803393"/>
</g>
<g style="fill:rgb(13.729858%,12.159729%,12.548828%);fill-opacity:1;">
  <use xlink:href="#glyph0-10" x="260.832858" y="277.803393"/>
</g>
<g style="fill:rgb(13.729858%,12.159729%,12.548828%);fill-opacity:1;">
  <use xlink:href="#glyph1-1" x="270.58686" y="277.803393"/>
</g>
<g style="fill:rgb(100%,100%,100%);fill-opacity:1;">
  <use xlink:href="#glyph1-2" x="69.133366" y="353.466677"/>
  <use xlink:href="#glyph1-3" x="84.770445" y="353.466677"/>
  <use xlink:href="#glyph1-4" x="123.800089" y="353.466677"/>
  <use xlink:href="#glyph1-5" x="158.920464" y="353.466677"/>
  <use xlink:href="#glyph1-6" x="196.058526" y="353.466677"/>
  <use xlink:href="#glyph1-2" x="217.496456" y="353.466677"/>
  <use xlink:href="#glyph1-6" x="233.133535" y="353.466677"/>
</g>
<g style="fill:rgb(100%,100%,100%);fill-opacity:1;">
  <use xlink:href="#glyph1-7" x="254.382307" y="353.466677"/>
  <use xlink:href="#glyph1-1" x="288.935207" y="353.466677"/>
  <use xlink:href="#glyph1-8" x="305.959446" y="353.466677"/>
  <use xlink:href="#glyph1-2" x="339.755713" y="353.466677"/>
  <use xlink:href="#glyph1-9" x="355.392791" y="353.466677"/>
  <use xlink:href="#glyph1-2" x="384.586208" y="353.466677"/>
  <use xlink:href="#glyph1-8" x="400.223287" y="353.466677"/>
</g>
<g style="fill:rgb(100%,100%,100%);fill-opacity:1;">
  <use xlink:href="#glyph1-10" x="432.506288" y="353.466677"/>
</g>
<g style="fill:rgb(13.729858%,12.159729%,12.548828%);fill-opacity:1;">
  <use xlink:href="#glyph2-1" x="74.478357" y="539.356141"/>
  <use xlink:href="#glyph2-2" x="79.424374" y="539.356141"/>
  <use xlink:href="#glyph2-3" x="83.874991" y="539.356141"/>
  <use xlink:href="#glyph2-4" x="87.574517" y="539.356141"/>
  <use xlink:href="#glyph2-5" x="89.55612" y="539.356141"/>
  <use xlink:href="#glyph2-6" x="94.462186" y="539.356141"/>
  <use xlink:href="#glyph2-7" x="99.168493" y="539.356141"/>
  <use xlink:href="#glyph2-8" x="101.325884" y="539.356141"/>
  <use xlink:href="#glyph2-9" x="105.720569" y="539.356141"/>
  <use xlink:href="#glyph2-6" x="110.482809" y="539.356141"/>
  <use xlink:href="#glyph2-8" x="115.189116" y="539.356141"/>
  <use xlink:href="#glyph2-2" x="119.583801" y="539.356141"/>
  <use xlink:href="#glyph2-10" x="124.034418" y="539.356141"/>
</g>
<g style="fill:rgb(13.729858%,12.159729%,12.548828%);fill-opacity:1;">
  <use xlink:href="#glyph2-11" x="128.941283" y="539.356141"/>
  <use xlink:href="#glyph2-7" x="131.657997" y="539.356141"/>
  <use xlink:href="#glyph2-1" x="133.815388" y="539.356141"/>
  <use xlink:href="#glyph2-12" x="138.761405" y="539.356141"/>
  <use xlink:href="#glyph2-13" x="143.140109" y="539.356141"/>
  <use xlink:href="#glyph2-4" x="150.211556" y="539.356141"/>
  <use xlink:href="#glyph2-12" x="152.193159" y="539.356141"/>
  <use xlink:href="#glyph2-6" x="156.571863" y="539.356141"/>
  <use xlink:href="#glyph2-9" x="161.278171" y="539.356141"/>
  <use xlink:href="#glyph2-7" x="166.040411" y="539.356141"/>
  <use xlink:href="#glyph2-11" x="168.197801" y="539.356141"/>
</g>
<g style="fill:rgb(13.729858%,12.159729%,12.548828%);fill-opacity:1;">
  <use xlink:href="#glyph2-12" x="170.889746" y="539.356141"/>
  <use xlink:href="#glyph2-14" x="175.268449" y="539.356141"/>
</g>
<g style="fill:rgb(13.729858%,12.159729%,12.548828%);fill-opacity:1;">
  <use xlink:href="#glyph2-5" x="178.304777" y="539.356141"/>
  <use xlink:href="#glyph2-15" x="183.210843" y="539.356141"/>
  <use xlink:href="#glyph2-2" x="187.917151" y="539.356141"/>
</g>
<g style="fill:rgb(13.729858%,12.159729%,12.548828%);fill-opacity:1;">
  <use xlink:href="#glyph2-11" x="192.327816" y="539.356141"/>
</g>
<g style="fill:rgb(13.729858%,12.159729%,12.548828%);fill-opacity:1;">
  <use xlink:href="#glyph2-11" x="195.155596" y="539.356141"/>
  <use xlink:href="#glyph2-4" x="197.87231" y="539.356141"/>
  <use xlink:href="#glyph2-6" x="199.853913" y="539.356141"/>
  <use xlink:href="#glyph2-4" x="204.560221" y="539.356141"/>
  <use xlink:href="#glyph2-7" x="206.541824" y="539.356141"/>
</g>
<path style=" stroke:none;fill-rule:nonzero;fill:rgb(1.777649%,2.316284%,2.384949%);fill-opacity:1;" d="M 93.375 70.457031 C 93.375 74.050781 89.050781 76.355469 84.566406 76.355469 C 80.082031 76.355469 75.761719 74.050781 75.761719 70.457031 L 75.761719 63.53125 L 93.375 63.53125 Z M 100.019531 51.898438 L 100.019531 45.25 L 69.113281 45.25 L 69.113281 51.898438 L 81.242188 51.898438 L 81.242188 57.546875 L 69.113281 57.546875 L 69.113281 70.589844 C 69.113281 77.417969 76.050781 82.957031 84.566406 82.957031 C 93.085938 82.957031 100.019531 77.417969 100.019531 70.589844 L 100.019531 57.546875 L 87.890625 57.546875 L 87.890625 51.898438 Z M 100.019531 51.898438 "/>
</g>
</svg>
