<?xml version="1.0" encoding="UTF-8"?>
<svg xmlns="http://www.w3.org/2000/svg" xmlns:xlink="http://www.w3.org/1999/xlink" width="841.89pt" height="595.276pt" viewBox="0 0 841.89 595.276" version="1.2">
<defs>
<g>
<symbol overflow="visible" id="glyph0-0">
<path style="stroke:none;" d="M 0.40625 1.828125 L 3.59375 1.828125 L 3.59375 -6.921875 L 0.40625 -6.921875 Z M 0.796875 1.421875 L 0.796875 -6.515625 L 3.1875 -6.515625 L 3.1875 1.421875 Z M 0.796875 1.421875 "/>
</symbol>
<symbol overflow="visible" id="glyph0-1">
<path style="stroke:none;" d="M 2.953125 -2.015625 C 4.125 -2.015625 4.890625 -2.796875 4.890625 -3.921875 C 4.890625 -5.0625 4.125 -5.84375 2.953125 -5.84375 L 0.640625 -5.84375 L 0.640625 0 L 1.671875 0 L 1.671875 -2.015625 Z M 2.75 -4.921875 C 3.4375 -4.921875 3.8125 -4.578125 3.8125 -3.9375 C 3.8125 -3.296875 3.4375 -2.921875 2.734375 -2.921875 L 1.671875 -2.921875 L 1.671875 -4.921875 Z M 2.75 -4.921875 "/>
</symbol>
<symbol overflow="visible" id="glyph0-2">
<path style="stroke:none;" d="M 0.984375 -4.734375 C 1.3125 -4.734375 1.578125 -5 1.578125 -5.328125 C 1.578125 -5.65625 1.3125 -5.90625 0.984375 -5.90625 C 0.65625 -5.90625 0.390625 -5.65625 0.390625 -5.328125 C 0.390625 -5 0.65625 -4.734375 0.984375 -4.734375 Z M 0.5 0 L 1.484375 0 L 1.484375 -3.9375 L 0.5 -3.9375 Z M 0.5 0 "/>
</symbol>
<symbol overflow="visible" id="glyph0-3">
<path style="stroke:none;" d="M 1.671875 0.109375 C 2.296875 0.109375 2.828125 -0.171875 3 -0.578125 L 3.0625 0 L 3.921875 0 L 3.921875 -2.390625 C 3.921875 -3.484375 3.265625 -4.0625 2.203125 -4.0625 C 1.140625 -4.0625 0.4375 -3.5 0.4375 -2.65625 L 1.265625 -2.65625 C 1.265625 -3.0625 1.578125 -3.3125 2.15625 -3.3125 C 2.65625 -3.3125 2.96875 -3.09375 2.96875 -2.5625 L 2.96875 -2.46875 L 1.78125 -2.375 C 0.859375 -2.3125 0.328125 -1.859375 0.328125 -1.125 C 0.328125 -0.390625 0.84375 0.109375 1.671875 0.109375 Z M 2 -0.625 C 1.5625 -0.625 1.3125 -0.8125 1.3125 -1.171875 C 1.3125 -1.484375 1.546875 -1.6875 2.15625 -1.734375 L 2.984375 -1.796875 L 2.984375 -1.59375 C 2.984375 -0.984375 2.59375 -0.625 2 -0.625 Z M 2 -0.625 "/>
</symbol>
<symbol overflow="visible" id="glyph0-4">
<path style="stroke:none;" d="M 3.484375 0 L 3.484375 -0.8125 L 1.484375 -0.8125 L 3.484375 -3.140625 L 3.484375 -3.9375 L 0.296875 -3.9375 L 0.296875 -3.125 L 2.265625 -3.125 L 0.296875 -0.796875 L 0.296875 0 Z M 3.484375 0 "/>
</symbol>
<symbol overflow="visible" id="glyph0-5">
<path style="stroke:none;" d=""/>
</symbol>
<symbol overflow="visible" id="glyph0-6">
<path style="stroke:none;" d="M 3.203125 -4.96875 C 3.90625 -4.96875 4.5 -4.65625 4.671875 -3.96875 L 5.75 -3.96875 C 5.59375 -5.15625 4.5625 -5.9375 3.21875 -5.9375 C 1.46875 -5.9375 0.3125 -4.671875 0.3125 -2.890625 C 0.3125 -1.109375 1.453125 0.09375 3.09375 0.09375 C 3.875 0.09375 4.546875 -0.21875 4.859375 -0.671875 L 4.921875 0 L 5.78125 0 L 5.78125 -3.28125 L 3.078125 -3.28125 L 3.078125 -2.375 L 4.84375 -2.375 L 4.84375 -2.359375 C 4.84375 -1.421875 4.21875 -0.859375 3.203125 -0.859375 C 2.125 -0.859375 1.375 -1.578125 1.375 -2.875 C 1.375 -4.140625 2.046875 -4.96875 3.203125 -4.96875 Z M 3.203125 -4.96875 "/>
</symbol>
<symbol overflow="visible" id="glyph0-7">
<path style="stroke:none;" d="M 2.984375 -3.953125 C 2.8125 -4 2.6875 -4.015625 2.546875 -4.015625 C 2.015625 -4.015625 1.640625 -3.75 1.484375 -3.359375 L 1.421875 -3.9375 L 0.5 -3.9375 L 0.5 0 L 1.484375 0 L 1.484375 -1.921875 C 1.484375 -2.6875 1.921875 -3.0625 2.625 -3.0625 L 2.984375 -3.0625 Z M 2.984375 -3.953125 "/>
</symbol>
<symbol overflow="visible" id="glyph0-8">
<path style="stroke:none;" d="M 1.40625 0 L 1.46875 -0.609375 C 1.703125 -0.15625 2.203125 0.109375 2.796875 0.109375 C 3.921875 0.109375 4.671875 -0.734375 4.671875 -1.953125 C 4.671875 -3.1875 3.984375 -4.078125 2.859375 -4.078125 C 2.265625 -4.078125 1.734375 -3.8125 1.484375 -3.375 L 1.484375 -5.9375 L 0.5 -5.9375 L 0.5 0 Z M 1.484375 -1.984375 C 1.484375 -2.703125 1.921875 -3.1875 2.59375 -3.1875 C 3.28125 -3.1875 3.6875 -2.6875 3.6875 -1.984375 C 3.6875 -1.28125 3.28125 -0.796875 2.59375 -0.796875 C 1.921875 -0.796875 1.484375 -1.28125 1.484375 -1.984375 Z M 1.484375 -1.984375 "/>
</symbol>
<symbol overflow="visible" id="glyph0-9">
<path style="stroke:none;" d="M 1.484375 0 L 1.484375 -5.9375 L 0.515625 -5.9375 L 0.515625 0 Z M 1.484375 0 "/>
</symbol>
<symbol overflow="visible" id="glyph0-10">
<path style="stroke:none;" d="M 2.125 0.109375 C 2.71875 0.109375 3.234375 -0.15625 3.46875 -0.609375 L 3.53125 0 L 4.4375 0 L 4.4375 -5.9375 L 3.46875 -5.9375 L 3.46875 -3.4375 C 3.21875 -3.828125 2.734375 -4.0625 2.1875 -4.0625 C 0.984375 -4.0625 0.265625 -3.1875 0.265625 -1.953125 C 0.265625 -0.734375 0.984375 0.109375 2.125 0.109375 Z M 2.34375 -0.796875 C 1.65625 -0.796875 1.25 -1.28125 1.25 -1.984375 C 1.25 -2.6875 1.65625 -3.1875 2.34375 -3.1875 C 3.015625 -3.1875 3.453125 -2.703125 3.453125 -1.984375 C 3.453125 -1.28125 3.015625 -0.796875 2.34375 -0.796875 Z M 2.34375 -0.796875 "/>
</symbol>
<symbol overflow="visible" id="glyph0-11">
<path style="stroke:none;" d="M 1.796875 -0.34375 C 1.796875 -0.84375 1.515625 -1.171875 1.125 -1.171875 C 0.765625 -1.171875 0.515625 -0.921875 0.515625 -0.53125 C 0.515625 -0.21875 0.765625 0.015625 1.078125 0.015625 C 1.171875 0.015625 1.25 0 1.3125 -0.03125 C 1.3125 0.25 1.03125 0.46875 0.671875 0.53125 L 0.671875 0.921875 C 1.328125 0.84375 1.796875 0.3125 1.796875 -0.34375 Z M 1.796875 -0.34375 "/>
</symbol>
<symbol overflow="visible" id="glyph0-12">
<path style="stroke:none;" d="M 1.546875 -4.921875 L 1.546875 0 L 2.53125 0 L 2.53125 -5.84375 L 0.265625 -5.84375 L 0.265625 -4.921875 Z M 1.546875 -4.921875 "/>
</symbol>
<symbol overflow="visible" id="glyph0-13">
<path style="stroke:none;" d="M 2.359375 0.09375 C 3.65625 0.09375 4.546875 -0.765625 4.546875 -2.03125 C 4.546875 -3.171875 3.765625 -3.96875 2.609375 -3.96875 C 2.203125 -3.96875 1.859375 -3.859375 1.578125 -3.6875 L 1.890625 -4.890625 L 4.1875 -4.890625 L 4.1875 -5.84375 L 1.15625 -5.84375 L 0.4375 -2.78125 L 1.328125 -2.59375 C 1.546875 -2.890625 1.953125 -3.109375 2.390625 -3.109375 C 3.09375 -3.109375 3.5 -2.65625 3.5 -1.96875 C 3.5 -1.265625 3.0625 -0.8125 2.375 -0.8125 C 1.734375 -0.8125 1.34375 -1.203125 1.34375 -1.875 L 0.328125 -1.875 C 0.328125 -0.6875 1.140625 0.09375 2.359375 0.09375 Z M 2.359375 0.09375 "/>
</symbol>
<symbol overflow="visible" id="glyph0-14">
<path style="stroke:none;" d="M 0.5 -1.703125 L 3.0625 -1.703125 L 3.0625 -2.5625 L 0.5 -2.5625 Z M 0.5 -1.703125 "/>
</symbol>
<symbol overflow="visible" id="glyph0-15">
<path style="stroke:none;" d="M 1.671875 -5.84375 L 0.640625 -5.84375 L 0.640625 0 L 1.671875 0 Z M 1.671875 -5.84375 "/>
</symbol>
<symbol overflow="visible" id="glyph0-16">
<path style="stroke:none;" d="M 0.203125 -1.203125 C 0.203125 -0.421875 0.828125 0.109375 1.796875 0.109375 C 2.78125 0.109375 3.453125 -0.390625 3.453125 -1.1875 C 3.453125 -1.796875 3.125 -2.09375 2.453125 -2.25 L 1.75 -2.421875 C 1.40625 -2.5 1.234375 -2.640625 1.234375 -2.859375 C 1.234375 -3.15625 1.46875 -3.34375 1.84375 -3.34375 C 2.21875 -3.34375 2.4375 -3.125 2.453125 -2.78125 L 3.375 -2.78125 C 3.375 -3.546875 2.765625 -4.0625 1.890625 -4.0625 C 0.96875 -4.0625 0.3125 -3.59375 0.3125 -2.828125 C 0.3125 -2.203125 0.65625 -1.859375 1.375 -1.703125 L 2.078125 -1.53125 C 2.4375 -1.453125 2.53125 -1.3125 2.53125 -1.109375 C 2.53125 -0.828125 2.296875 -0.640625 1.84375 -0.640625 C 1.390625 -0.640625 1.140625 -0.859375 1.125 -1.203125 Z M 0.203125 -1.203125 "/>
</symbol>
<symbol overflow="visible" id="glyph0-17">
<path style="stroke:none;" d="M 2.265625 0.109375 C 3.296875 0.109375 4.015625 -0.421875 4.1875 -1.28125 L 3.28125 -1.28125 C 3.171875 -0.90625 2.8125 -0.6875 2.28125 -0.6875 C 1.640625 -0.6875 1.265625 -1.046875 1.203125 -1.734375 L 4.171875 -1.75 L 4.171875 -2.046875 C 4.171875 -3.28125 3.421875 -4.0625 2.234375 -4.0625 C 1.078125 -4.0625 0.265625 -3.203125 0.265625 -1.96875 C 0.265625 -0.75 1.09375 0.109375 2.265625 0.109375 Z M 2.25 -3.265625 C 2.828125 -3.265625 3.203125 -2.90625 3.203125 -2.359375 L 1.21875 -2.359375 C 1.3125 -2.953125 1.671875 -3.265625 2.25 -3.265625 Z M 2.25 -3.265625 "/>
</symbol>
<symbol overflow="visible" id="glyph0-18">
<path style="stroke:none;" d="M 0.265625 -1.984375 C 0.265625 -0.75 1.15625 0.09375 2.375 0.09375 C 3.59375 0.09375 4.484375 -0.75 4.484375 -1.984375 C 4.484375 -3.203125 3.59375 -4.0625 2.375 -4.0625 C 1.15625 -4.0625 0.265625 -3.203125 0.265625 -1.984375 Z M 1.25 -1.984375 C 1.25 -2.703125 1.703125 -3.1875 2.375 -3.1875 C 3.046875 -3.1875 3.515625 -2.703125 3.515625 -1.984375 C 3.515625 -1.265625 3.046875 -0.78125 2.375 -0.78125 C 1.703125 -0.78125 1.25 -1.265625 1.25 -1.984375 Z M 1.25 -1.984375 "/>
</symbol>
<symbol overflow="visible" id="glyph0-19">
<path style="stroke:none;" d="M 1.375 0 L 2.328125 0 L 2.859375 -1.6875 C 3.0625 -2.34375 3.140625 -2.625 3.171875 -2.796875 C 3.203125 -2.609375 3.296875 -2.234375 3.453125 -1.703125 L 4 0 L 4.90625 0 L 6.28125 -3.9375 L 5.25 -3.9375 L 4.71875 -2.25 C 4.640625 -2 4.515625 -1.53125 4.453125 -1.234375 C 4.40625 -1.5 4.25 -2.09375 4.203125 -2.25 L 3.671875 -3.9375 L 2.6875 -3.9375 L 2.140625 -2.25 C 2.015625 -1.859375 1.9375 -1.609375 1.875 -1.234375 C 1.796875 -1.59375 1.71875 -1.9375 1.625 -2.25 L 1.109375 -3.9375 L 0.09375 -3.9375 Z M 1.375 0 "/>
</symbol>
<symbol overflow="visible" id="glyph0-20">
<path style="stroke:none;" d="M 1.15625 0.09375 C 1.515625 0.09375 1.796875 -0.1875 1.796875 -0.53125 C 1.796875 -0.890625 1.515625 -1.171875 1.15625 -1.171875 C 0.8125 -1.171875 0.515625 -0.890625 0.515625 -0.53125 C 0.515625 -0.1875 0.8125 0.09375 1.15625 0.09375 Z M 1.15625 0.09375 "/>
</symbol>
<symbol overflow="visible" id="glyph0-21">
<path style="stroke:none;" d="M 1.484375 0 L 1.484375 -2.125 C 1.484375 -2.765625 1.84375 -3.171875 2.4375 -3.171875 C 2.953125 -3.171875 3.28125 -2.859375 3.28125 -2.203125 L 3.28125 0 L 4.25 0 L 4.25 -2.421875 C 4.25 -3.453125 3.734375 -4.0625 2.75 -4.0625 C 2.21875 -4.0625 1.734375 -3.828125 1.484375 -3.4375 L 1.40625 -3.9375 L 0.5 -3.9375 L 0.5 0 Z M 1.484375 0 "/>
</symbol>
<symbol overflow="visible" id="glyph0-22">
<path style="stroke:none;" d="M 1.84375 0 L 1.84375 -3.125 L 2.609375 -3.125 L 2.609375 -3.9375 L 1.84375 -3.9375 L 1.84375 -5.171875 L 0.875 -5.171875 L 0.875 -3.9375 L 0.109375 -3.9375 L 0.109375 -3.125 L 0.875 -3.125 L 0.875 0 Z M 1.84375 0 "/>
</symbol>
<symbol overflow="visible" id="glyph0-23">
<path style="stroke:none;" d="M 0.640625 -3.09375 L 0.640625 -2.28125 L 2.234375 -2.28125 L 2.234375 -0.6875 L 3.046875 -0.6875 L 3.046875 -2.28125 L 4.625 -2.28125 L 4.625 -3.09375 L 3.046875 -3.09375 L 3.046875 -4.6875 L 2.234375 -4.6875 L 2.234375 -3.09375 Z M 0.640625 -3.09375 "/>
</symbol>
<symbol overflow="visible" id="glyph0-24">
<path style="stroke:none;" d="M 2.0625 -2.890625 C 2.875 -2.890625 3.265625 -2.453125 3.265625 -1.875 C 3.265625 -1.21875 2.84375 -0.8125 2.203125 -0.8125 C 1.578125 -0.8125 1.171875 -1.1875 1.171875 -1.859375 L 0.15625 -1.859375 C 0.15625 -0.59375 1.046875 0.109375 2.1875 0.109375 C 3.375 0.109375 4.296875 -0.65625 4.296875 -1.859375 C 4.296875 -2.875 3.609375 -3.53125 2.71875 -3.71875 L 4.140625 -5.015625 L 4.140625 -5.84375 L 0.4375 -5.84375 L 0.4375 -4.9375 L 2.859375 -4.9375 L 1.359375 -3.546875 L 1.359375 -2.890625 Z M 2.0625 -2.890625 "/>
</symbol>
<symbol overflow="visible" id="glyph0-25">
<path style="stroke:none;" d="M 3.78125 -1.71875 C 4.4375 -2.609375 4.65625 -3.109375 4.65625 -3.8125 C 4.65625 -5.015625 3.71875 -5.9375 2.453125 -5.9375 C 1.21875 -5.9375 0.28125 -5.0625 0.28125 -3.828125 C 0.28125 -2.640625 1.109375 -1.796875 2.3125 -1.796875 C 2.453125 -1.796875 2.609375 -1.828125 2.75 -1.859375 L 1.34375 0 L 2.515625 0 Z M 3.609375 -3.828125 C 3.609375 -3.125 3.15625 -2.640625 2.453125 -2.640625 C 1.78125 -2.640625 1.3125 -3.125 1.3125 -3.828125 C 1.3125 -4.53125 1.78125 -5.03125 2.453125 -5.03125 C 3.140625 -5.03125 3.609375 -4.53125 3.609375 -3.828125 Z M 3.609375 -3.828125 "/>
</symbol>
<symbol overflow="visible" id="glyph0-26">
<path style="stroke:none;" d="M 0.34375 -2.90625 C 0.34375 -1.109375 1.265625 0.109375 2.8125 0.109375 C 4.359375 0.109375 5.28125 -1.109375 5.28125 -2.90625 C 5.28125 -4.71875 4.296875 -5.953125 2.8125 -5.953125 C 1.3125 -5.953125 0.34375 -4.71875 0.34375 -2.90625 Z M 1.34375 -2.90625 C 1.34375 -4.28125 1.890625 -5.046875 2.8125 -5.046875 C 3.734375 -5.046875 4.28125 -4.28125 4.28125 -2.90625 C 4.28125 -1.5625 3.734375 -0.796875 2.8125 -0.796875 C 1.890625 -0.796875 1.34375 -1.5625 1.34375 -2.90625 Z M 1.34375 -2.90625 "/>
</symbol>
<symbol overflow="visible" id="glyph0-27">
<path style="stroke:none;" d="M 0.328125 -1.65625 C 0.328125 -0.59375 1.203125 0.09375 2.5625 0.09375 C 3.90625 0.09375 4.78125 -0.59375 4.78125 -1.65625 C 4.78125 -2.359375 4.390625 -2.921875 3.765625 -3.140625 C 4.28125 -3.359375 4.578125 -3.796875 4.578125 -4.359375 C 4.578125 -5.3125 3.765625 -5.9375 2.578125 -5.9375 C 1.359375 -5.9375 0.546875 -5.296875 0.546875 -4.375 C 0.546875 -3.8125 0.828125 -3.375 1.328125 -3.140625 C 0.734375 -2.90625 0.328125 -2.34375 0.328125 -1.65625 Z M 1.46875 -4.28125 C 1.46875 -4.765625 1.890625 -5.0625 2.5625 -5.0625 C 3.203125 -5.0625 3.625 -4.765625 3.625 -4.28125 C 3.625 -3.796875 3.203125 -3.484375 2.5625 -3.484375 C 1.890625 -3.484375 1.46875 -3.796875 1.46875 -4.28125 Z M 1.328125 -1.71875 C 1.328125 -2.296875 1.796875 -2.640625 2.5625 -2.640625 C 3.3125 -2.640625 3.78125 -2.296875 3.78125 -1.71875 C 3.78125 -1.15625 3.3125 -0.8125 2.5625 -0.8125 C 1.796875 -0.8125 1.328125 -1.15625 1.328125 -1.71875 Z M 1.328125 -1.71875 "/>
</symbol>
<symbol overflow="visible" id="glyph0-28">
<path style="stroke:none;" d="M 4.421875 -0.015625 L 4.421875 -0.953125 L 1.984375 -0.953125 L 3.046875 -1.859375 C 3.921875 -2.625 4.375 -3.234375 4.375 -4.046875 C 4.375 -5.234375 3.59375 -5.9375 2.359375 -5.9375 C 1.125 -5.9375 0.296875 -5.109375 0.296875 -3.828125 L 1.3125 -3.828125 C 1.3125 -4.578125 1.71875 -5.03125 2.359375 -5.03125 C 2.96875 -5.03125 3.328125 -4.65625 3.328125 -4 C 3.328125 -3.4375 3.0625 -3.046875 2.28125 -2.375 L 0.375 -0.765625 L 0.375 0 Z M 4.421875 -0.015625 "/>
</symbol>
<symbol overflow="visible" id="glyph0-29">
<path style="stroke:none;" d="M 0.0625 -5.84375 L 0.0625 -4.890625 L 3.21875 -4.890625 L 1.0625 0 L 2.125 0 L 4.25 -4.890625 L 4.25 -5.84375 Z M 0.0625 -5.84375 "/>
</symbol>
<symbol overflow="visible" id="glyph0-30">
<path style="stroke:none;" d="M 1.171875 -4.125 C 0.515625 -3.234375 0.28125 -2.71875 0.28125 -2.015625 C 0.28125 -0.828125 1.234375 0.109375 2.484375 0.109375 C 3.734375 0.109375 4.65625 -0.765625 4.65625 -2.015625 C 4.65625 -3.1875 3.84375 -4.046875 2.640625 -4.046875 C 2.5 -4.046875 2.34375 -4.015625 2.203125 -3.96875 L 3.59375 -5.84375 L 2.4375 -5.84375 Z M 1.328125 -2.015625 C 1.328125 -2.71875 1.796875 -3.203125 2.484375 -3.203125 C 3.15625 -3.203125 3.640625 -2.71875 3.640625 -2.015625 C 3.640625 -1.296875 3.15625 -0.8125 2.484375 -0.8125 C 1.796875 -0.8125 1.328125 -1.296875 1.328125 -2.015625 Z M 1.328125 -2.015625 "/>
</symbol>
<symbol overflow="visible" id="glyph0-31">
<path style="stroke:none;" d="M 0.109375 -3.9375 L 0.109375 -3.125 L 0.671875 -3.125 L 0.671875 0 L 1.640625 0 L 1.640625 -3.125 L 2.59375 -3.125 L 2.59375 -3.9375 L 1.640625 -3.9375 L 1.640625 -4.421875 C 1.640625 -4.8125 1.765625 -5.0625 2.265625 -5.0625 L 2.609375 -5.0625 L 2.609375 -5.90625 C 2.4375 -5.9375 2.25 -5.9375 2.09375 -5.9375 C 1.25 -5.9375 0.671875 -5.5 0.671875 -4.421875 L 0.671875 -3.9375 Z M 0.109375 -3.9375 "/>
</symbol>
<symbol overflow="visible" id="glyph0-32">
<path style="stroke:none;" d="M 2.09375 -1.796875 C 2.09375 -1.109375 2.578125 -0.671875 3.390625 -0.671875 C 3.953125 -0.671875 4.484375 -0.953125 4.640625 -1.359375 C 4.75 -0.921875 5.109375 -0.671875 5.65625 -0.671875 C 6.578125 -0.671875 7.15625 -1.484375 7.15625 -2.71875 C 7.15625 -4.578125 5.75 -5.9375 3.796875 -5.9375 C 1.84375 -5.9375 0.375 -4.484375 0.375 -2.515625 C 0.375 -0.5625 1.84375 0.90625 3.796875 0.90625 C 4.515625 0.90625 5.1875 0.6875 5.734375 0.296875 L 5.46875 -0.25 C 4.953125 0.109375 4.375 0.296875 3.796875 0.296875 C 2.203125 0.296875 1.015625 -0.90625 1.015625 -2.515625 C 1.015625 -4.140625 2.203125 -5.34375 3.796875 -5.34375 C 5.390625 -5.34375 6.515625 -4.25 6.515625 -2.71875 C 6.515625 -1.859375 6.21875 -1.265625 5.78125 -1.265625 C 5.515625 -1.265625 5.375 -1.40625 5.375 -1.71875 L 5.375 -2.953125 C 5.375 -3.921875 4.8125 -4.46875 3.8125 -4.46875 C 2.828125 -4.46875 2.203125 -3.953125 2.203125 -3.1875 L 2.953125 -3.1875 C 2.953125 -3.5625 3.234375 -3.78125 3.765625 -3.78125 C 4.25 -3.78125 4.515625 -3.546875 4.515625 -3.09375 L 4.515625 -3.015625 L 3.4375 -2.9375 C 2.5625 -2.859375 2.09375 -2.4375 2.09375 -1.796875 Z M 3 -1.828125 C 3 -2.140625 3.21875 -2.296875 3.765625 -2.34375 L 4.515625 -2.40625 L 4.515625 -2.21875 C 4.515625 -1.671875 4.171875 -1.34375 3.609375 -1.34375 C 3.203125 -1.34375 3 -1.515625 3 -1.828125 Z M 3 -1.828125 "/>
</symbol>
<symbol overflow="visible" id="glyph1-0">
<path style="stroke:none;" d="M 0.59375 2.75 L 5.390625 2.75 L 5.390625 -10.390625 L 0.59375 -10.390625 Z M 1.203125 2.140625 L 1.203125 -9.796875 L 4.796875 -9.796875 L 4.796875 2.140625 Z M 1.203125 2.140625 "/>
</symbol>
<symbol overflow="visible" id="glyph1-1">
<path style="stroke:none;" d="M 2.109375 0 L 2.203125 -0.921875 C 2.546875 -0.234375 3.3125 0.15625 4.1875 0.15625 C 5.890625 0.15625 7.015625 -1.109375 7.015625 -2.921875 C 7.015625 -4.796875 5.984375 -6.109375 4.296875 -6.109375 C 3.390625 -6.109375 2.59375 -5.71875 2.21875 -5.0625 L 2.21875 -8.921875 L 0.75 -8.921875 L 0.75 0 Z M 2.234375 -2.984375 C 2.234375 -4.046875 2.890625 -4.796875 3.890625 -4.796875 C 4.921875 -4.796875 5.53125 -4.03125 5.53125 -2.984375 C 5.53125 -1.921875 4.921875 -1.1875 3.890625 -1.1875 C 2.890625 -1.1875 2.234375 -1.921875 2.234375 -2.984375 Z M 2.234375 -2.984375 "/>
</symbol>
<symbol overflow="visible" id="glyph1-2">
<path style="stroke:none;" d="M 1.484375 -7.109375 C 1.96875 -7.109375 2.359375 -7.5 2.359375 -8 C 2.359375 -8.484375 1.96875 -8.875 1.484375 -8.875 C 0.984375 -8.875 0.59375 -8.484375 0.59375 -8 C 0.59375 -7.5 0.984375 -7.109375 1.484375 -7.109375 Z M 0.75 0 L 2.21875 0 L 2.21875 -5.921875 L 0.75 -5.921875 Z M 0.75 0 "/>
</symbol>
<symbol overflow="visible" id="glyph1-3">
<path style="stroke:none;" d="M 0.421875 -3.09375 C 0.421875 -1.375 1.515625 -0.125 3.203125 -0.125 C 4.046875 -0.125 4.78125 -0.46875 5.15625 -1.015625 L 5.15625 -0.03125 C 5.15625 0.953125 4.5 1.578125 3.5 1.578125 C 2.59375 1.578125 2.015625 1.125 1.921875 0.359375 L 0.453125 0.359375 C 0.640625 1.9375 1.796875 2.90625 3.5 2.90625 C 5.421875 2.90625 6.609375 1.671875 6.609375 -0.296875 L 6.609375 -5.921875 L 5.25 -5.921875 L 5.171875 -5.109375 C 4.8125 -5.734375 4.125 -6.109375 3.234375 -6.109375 C 1.546875 -6.109375 0.421875 -4.8125 0.421875 -3.09375 Z M 1.890625 -3.125 C 1.890625 -4.09375 2.515625 -4.828125 3.484375 -4.828125 C 4.5 -4.828125 5.125 -4.140625 5.125 -3.125 C 5.125 -2.09375 4.5 -1.390625 3.484375 -1.390625 C 2.53125 -1.390625 1.890625 -2.140625 1.890625 -3.125 Z M 1.890625 -3.125 "/>
</symbol>
<symbol overflow="visible" id="glyph1-4">
<path style="stroke:none;" d="M 2.234375 0 L 2.234375 -8.921875 L 0.78125 -8.921875 L 0.78125 0 Z M 2.234375 0 "/>
</symbol>
<symbol overflow="visible" id="glyph1-5">
<path style="stroke:none;" d="M 3.40625 0.15625 C 4.953125 0.15625 6.03125 -0.625 6.28125 -1.921875 L 4.921875 -1.921875 C 4.75 -1.359375 4.234375 -1.046875 3.421875 -1.046875 C 2.453125 -1.046875 1.90625 -1.5625 1.796875 -2.609375 L 6.25 -2.625 L 6.25 -3.0625 C 6.25 -4.90625 5.125 -6.09375 3.359375 -6.09375 C 1.625 -6.09375 0.40625 -4.8125 0.40625 -2.953125 C 0.40625 -1.125 1.640625 0.15625 3.40625 0.15625 Z M 3.375 -4.90625 C 4.25 -4.90625 4.8125 -4.359375 4.8125 -3.546875 L 1.828125 -3.546875 C 1.984375 -4.4375 2.5 -4.90625 3.375 -4.90625 Z M 3.375 -4.90625 "/>
</symbol>
<symbol overflow="visible" id="glyph1-6">
<path style="stroke:none;" d="M 2.765625 0 L 2.765625 -4.703125 L 3.921875 -4.703125 L 3.921875 -5.921875 L 2.765625 -5.921875 L 2.765625 -7.765625 L 1.3125 -7.765625 L 1.3125 -5.921875 L 0.171875 -5.921875 L 0.171875 -4.703125 L 1.3125 -4.703125 L 1.3125 0 Z M 2.765625 0 "/>
</symbol>
<symbol overflow="visible" id="glyph1-7">
<path style="stroke:none;" d="M 0.40625 -2.96875 C 0.40625 -1.125 1.734375 0.140625 3.578125 0.140625 C 5.40625 0.140625 6.734375 -1.125 6.734375 -2.96875 C 6.734375 -4.8125 5.40625 -6.09375 3.578125 -6.09375 C 1.734375 -6.09375 0.40625 -4.8125 0.40625 -2.96875 Z M 1.875 -2.96875 C 1.875 -4.046875 2.5625 -4.78125 3.578125 -4.78125 C 4.578125 -4.78125 5.265625 -4.046875 5.265625 -2.96875 C 5.265625 -1.890625 4.578125 -1.15625 3.578125 -1.15625 C 2.5625 -1.15625 1.875 -1.890625 1.875 -2.96875 Z M 1.875 -2.96875 "/>
</symbol>
<symbol overflow="visible" id="glyph1-8">
<path style="stroke:none;" d=""/>
</symbol>
<symbol overflow="visible" id="glyph1-9">
<path style="stroke:none;" d="M 3.1875 0.15625 C 4.09375 0.15625 4.859375 -0.234375 5.21875 -0.921875 L 5.3125 0 L 6.65625 0 L 6.65625 -8.921875 L 5.203125 -8.921875 L 5.203125 -5.171875 C 4.828125 -5.75 4.09375 -6.09375 3.265625 -6.09375 C 1.484375 -6.09375 0.40625 -4.78125 0.40625 -2.9375 C 0.40625 -1.109375 1.46875 0.15625 3.1875 0.15625 Z M 3.515625 -1.1875 C 2.5 -1.1875 1.875 -1.921875 1.875 -2.984375 C 1.875 -4.03125 2.5 -4.796875 3.515625 -4.796875 C 4.53125 -4.796875 5.1875 -4.046875 5.1875 -2.984375 C 5.1875 -1.921875 4.53125 -1.1875 3.515625 -1.1875 Z M 3.515625 -1.1875 "/>
</symbol>
<symbol overflow="visible" id="glyph1-10">
<path style="stroke:none;" d="M 2.515625 0.15625 C 3.4375 0.15625 4.25 -0.265625 4.5 -0.875 L 4.609375 0 L 5.890625 0 L 5.890625 -3.59375 C 5.890625 -5.234375 4.90625 -6.09375 3.3125 -6.09375 C 1.703125 -6.09375 0.640625 -5.265625 0.640625 -3.984375 L 1.890625 -3.984375 C 1.890625 -4.609375 2.375 -4.96875 3.234375 -4.96875 C 3.984375 -4.96875 4.453125 -4.640625 4.453125 -3.828125 L 4.453125 -3.703125 L 2.6875 -3.578125 C 1.28125 -3.46875 0.484375 -2.78125 0.484375 -1.6875 C 0.484375 -0.578125 1.265625 0.15625 2.515625 0.15625 Z M 3 -0.953125 C 2.34375 -0.953125 1.984375 -1.203125 1.984375 -1.75 C 1.984375 -2.234375 2.328125 -2.53125 3.234375 -2.609375 L 4.46875 -2.703125 L 4.46875 -2.390625 C 4.46875 -1.484375 3.890625 -0.953125 3 -0.953125 Z M 3 -0.953125 "/>
</symbol>
<symbol overflow="visible" id="glyph1-11">
<path style="stroke:none;" d="M 2.4375 0 L 3.875 0 L 6.34375 -5.921875 L 4.828125 -5.921875 L 3.75 -3.203125 C 3.5 -2.546875 3.28125 -1.921875 3.203125 -1.5625 C 3.125 -1.875 2.921875 -2.5 2.671875 -3.203125 L 1.640625 -5.921875 L 0.078125 -5.921875 Z M 2.4375 0 "/>
</symbol>
<symbol overflow="visible" id="glyph1-12">
<path style="stroke:none;" d="M 0.296875 -1.796875 C 0.296875 -0.640625 1.234375 0.15625 2.703125 0.15625 C 4.171875 0.15625 5.1875 -0.59375 5.1875 -1.78125 C 5.1875 -2.703125 4.6875 -3.15625 3.6875 -3.375 L 2.625 -3.625 C 2.125 -3.75 1.859375 -3.96875 1.859375 -4.296875 C 1.859375 -4.75 2.1875 -5.015625 2.765625 -5.015625 C 3.328125 -5.015625 3.671875 -4.6875 3.671875 -4.1875 L 5.0625 -4.1875 C 5.0625 -5.328125 4.15625 -6.09375 2.828125 -6.09375 C 1.46875 -6.09375 0.484375 -5.40625 0.484375 -4.25 C 0.484375 -3.296875 1 -2.796875 2.0625 -2.546875 L 3.125 -2.296875 C 3.65625 -2.1875 3.8125 -1.96875 3.8125 -1.671875 C 3.8125 -1.234375 3.4375 -0.953125 2.75 -0.953125 C 2.078125 -0.953125 1.703125 -1.28125 1.6875 -1.796875 Z M 0.296875 -1.796875 "/>
</symbol>
<symbol overflow="visible" id="glyph1-13">
<path style="stroke:none;" d="M 0.75 2.75 L 2.21875 2.75 L 2.21875 -0.796875 C 2.59375 -0.1875 3.359375 0.15625 4.25 0.15625 C 6 0.15625 7.015625 -1.1875 7.015625 -3.03125 C 7.015625 -4.890625 5.90625 -6.09375 4.25 -6.09375 C 3.34375 -6.09375 2.5625 -5.703125 2.203125 -5.015625 L 2.109375 -5.921875 L 0.75 -5.921875 Z M 2.234375 -2.953125 C 2.234375 -4.03125 2.890625 -4.765625 3.890625 -4.765625 C 4.921875 -4.765625 5.53125 -4.015625 5.53125 -2.953125 C 5.53125 -1.90625 4.921875 -1.15625 3.890625 -1.15625 C 2.890625 -1.15625 2.234375 -1.890625 2.234375 -2.953125 Z M 2.234375 -2.953125 "/>
</symbol>
<symbol overflow="visible" id="glyph1-14">
<path style="stroke:none;" d="M 0.40625 -2.96875 C 0.40625 -1.09375 1.578125 0.15625 3.375 0.15625 C 4.921875 0.15625 6.078125 -0.796875 6.25 -2.171875 L 4.78125 -2.171875 C 4.625 -1.515625 4.109375 -1.15625 3.375 -1.15625 C 2.4375 -1.15625 1.875 -1.859375 1.875 -2.96875 C 1.875 -4.09375 2.5 -4.796875 3.421875 -4.796875 C 4.125 -4.796875 4.609375 -4.453125 4.78125 -3.78125 L 6.25 -3.78125 C 6.09375 -5.203125 4.984375 -6.09375 3.375 -6.09375 C 1.625 -6.09375 0.40625 -4.8125 0.40625 -2.96875 Z M 0.40625 -2.96875 "/>
</symbol>
<symbol overflow="visible" id="glyph1-15">
<path style="stroke:none;" d="M 4.46875 -5.9375 C 4.234375 -6 4.03125 -6.03125 3.828125 -6.03125 C 3.03125 -6.03125 2.46875 -5.625 2.21875 -5.046875 L 2.140625 -5.90625 L 0.75 -5.90625 L 0.75 0 L 2.21875 0 L 2.21875 -2.875 C 2.21875 -4.03125 2.875 -4.59375 3.9375 -4.59375 L 4.46875 -4.59375 Z M 4.46875 -5.9375 "/>
</symbol>
</g>
</defs>
<g id="surface1">
<path style=" stroke:none;fill-rule:nonzero;fill:rgb(10.980225%,83.137512%,77.6474%);fill-opacity:1;" d="M 684.796875 385.613281 L 447.863281 385.613281 L 447.863281 229.894531 L 684.796875 229.894531 Z M 684.796875 385.613281 "/>
<path style=" stroke:none;fill-rule:nonzero;fill:rgb(18.521118%,17.532349%,17.060852%);fill-opacity:1;" d="M 418.914062 385.878906 L 181.980469 385.878906 L 181.980469 230.164062 L 418.914062 230.164062 Z M 418.914062 385.878906 "/>
<g style="fill:rgb(100%,100%,100%);fill-opacity:1;">
  <use xlink:href="#glyph0-1" x="465.13056" y="255.386288"/>
  <use xlink:href="#glyph0-2" x="470.236286" y="255.386288"/>
  <use xlink:href="#glyph0-3" x="472.217851" y="255.386288"/>
  <use xlink:href="#glyph0-4" x="476.596471" y="255.386288"/>
  <use xlink:href="#glyph0-4" x="480.375827" y="255.386288"/>
  <use xlink:href="#glyph0-3" x="484.155183" y="255.386288"/>
  <use xlink:href="#glyph0-5" x="488.533803" y="255.386288"/>
  <use xlink:href="#glyph0-6" x="490.691152" y="255.386288"/>
  <use xlink:href="#glyph0-3" x="496.939474" y="255.386288"/>
  <use xlink:href="#glyph0-7" x="501.318094" y="255.386288"/>
  <use xlink:href="#glyph0-2" x="504.458235" y="255.386288"/>
  <use xlink:href="#glyph0-8" x="506.439801" y="255.386288"/>
  <use xlink:href="#glyph0-3" x="511.385723" y="255.386288"/>
  <use xlink:href="#glyph0-9" x="515.764343" y="255.386288"/>
  <use xlink:href="#glyph0-10" x="517.769879" y="255.386288"/>
  <use xlink:href="#glyph0-2" x="522.715801" y="255.386288"/>
  <use xlink:href="#glyph0-11" x="524.697366" y="255.386288"/>
  <use xlink:href="#glyph0-5" x="527.022509" y="255.386288"/>
  <use xlink:href="#glyph0-12" x="529.179859" y="255.386288"/>
</g>
<g style="fill:rgb(100%,100%,100%);fill-opacity:1;">
  <use xlink:href="#glyph0-13" x="532.30402" y="255.386288"/>
  <use xlink:href="#glyph0-5" x="537.098129" y="255.386288"/>
  <use xlink:href="#glyph0-14" x="539.255478" y="255.386288"/>
  <use xlink:href="#glyph0-5" x="542.811109" y="255.386288"/>
  <use xlink:href="#glyph0-15" x="544.968458" y="255.386288"/>
  <use xlink:href="#glyph0-16" x="547.285611" y="255.386288"/>
  <use xlink:href="#glyph0-17" x="550.985065" y="255.386288"/>
  <use xlink:href="#glyph0-18" x="555.435597" y="255.386288"/>
  <use xlink:href="#glyph0-5" x="560.197745" y="255.386288"/>
  <use xlink:href="#glyph0-5" x="562.355094" y="255.386288"/>
</g>
<g style="fill:rgb(100%,100%,100%);fill-opacity:1;">
  <use xlink:href="#glyph0-19" x="596.281407" y="367.442001"/>
  <use xlink:href="#glyph0-19" x="602.649582" y="367.442001"/>
  <use xlink:href="#glyph0-19" x="609.017757" y="367.442001"/>
</g>
<g style="fill:rgb(100%,100%,100%);fill-opacity:1;">
  <use xlink:href="#glyph0-20" x="614.714757" y="367.442001"/>
  <use xlink:href="#glyph0-21" x="617.0399" y="367.442001"/>
  <use xlink:href="#glyph0-3" x="621.746117" y="367.442001"/>
  <use xlink:href="#glyph0-4" x="626.124737" y="367.442001"/>
  <use xlink:href="#glyph0-4" x="629.904093" y="367.442001"/>
  <use xlink:href="#glyph0-3" x="633.683449" y="367.442001"/>
  <use xlink:href="#glyph0-7" x="638.062069" y="367.442001"/>
  <use xlink:href="#glyph0-2" x="641.20221" y="367.442001"/>
  <use xlink:href="#glyph0-14" x="643.183775" y="367.442001"/>
  <use xlink:href="#glyph0-2" x="646.739406" y="367.442001"/>
  <use xlink:href="#glyph0-16" x="648.720971" y="367.442001"/>
  <use xlink:href="#glyph0-17" x="652.420426" y="367.442001"/>
  <use xlink:href="#glyph0-18" x="656.870957" y="367.442001"/>
</g>
<g style="fill:rgb(100%,100%,100%);fill-opacity:1;">
  <use xlink:href="#glyph0-20" x="661.394199" y="367.442001"/>
  <use xlink:href="#glyph0-2" x="663.719342" y="367.442001"/>
  <use xlink:href="#glyph0-22" x="665.700907" y="367.442001"/>
</g>
<g style="fill:rgb(100%,100%,100%);fill-opacity:1;">
  <use xlink:href="#glyph0-23" x="604.567226" y="255.386288"/>
  <use xlink:href="#glyph0-24" x="609.840746" y="255.386288"/>
  <use xlink:href="#glyph0-25" x="614.387159" y="255.386288"/>
  <use xlink:href="#glyph0-5" x="619.341072" y="255.386288"/>
  <use xlink:href="#glyph0-26" x="621.498421" y="255.386288"/>
</g>
<g style="fill:rgb(100%,100%,100%);fill-opacity:1;">
  <use xlink:href="#glyph0-24" x="627.107529" y="255.386288"/>
  <use xlink:href="#glyph0-26" x="631.653943" y="255.386288"/>
  <use xlink:href="#glyph0-5" x="637.287021" y="255.386288"/>
  <use xlink:href="#glyph0-25" x="639.44437" y="255.386288"/>
</g>
<g style="fill:rgb(100%,100%,100%);fill-opacity:1;">
  <use xlink:href="#glyph0-27" x="644.28642" y="255.386288"/>
</g>
<g style="fill:rgb(100%,100%,100%);fill-opacity:1;">
  <use xlink:href="#glyph0-28" x="649.272294" y="255.386288"/>
</g>
<g style="fill:rgb(100%,100%,100%);fill-opacity:1;">
  <use xlink:href="#glyph0-12" x="654.034443" y="255.386288"/>
</g>
<g style="fill:rgb(100%,100%,100%);fill-opacity:1;">
  <use xlink:href="#glyph0-29" x="657.285648" y="255.386288"/>
</g>
<g style="fill:rgb(100%,100%,100%);fill-opacity:1;">
  <use xlink:href="#glyph0-13" x="661.481292" y="255.386288"/>
  <use xlink:href="#glyph0-30" x="666.275401" y="255.386288"/>
</g>
<g style="fill:rgb(100%,100%,100%);fill-opacity:1;">
  <use xlink:href="#glyph0-2" x="465.777764" y="367.442001"/>
  <use xlink:href="#glyph0-21" x="467.75933" y="367.442001"/>
  <use xlink:href="#glyph0-31" x="472.465547" y="367.442001"/>
</g>
<g style="fill:rgb(100%,100%,100%);fill-opacity:1;">
  <use xlink:href="#glyph0-18" x="475.055165" y="367.442001"/>
  <use xlink:href="#glyph0-32" x="479.817313" y="367.442001"/>
  <use xlink:href="#glyph0-21" x="487.360045" y="367.442001"/>
  <use xlink:href="#glyph0-3" x="492.066262" y="367.442001"/>
  <use xlink:href="#glyph0-4" x="496.444882" y="367.442001"/>
  <use xlink:href="#glyph0-4" x="500.224238" y="367.442001"/>
  <use xlink:href="#glyph0-3" x="504.003594" y="367.442001"/>
  <use xlink:href="#glyph0-7" x="508.382214" y="367.442001"/>
  <use xlink:href="#glyph0-2" x="511.522355" y="367.442001"/>
  <use xlink:href="#glyph0-14" x="513.50392" y="367.442001"/>
  <use xlink:href="#glyph0-2" x="517.059551" y="367.442001"/>
  <use xlink:href="#glyph0-16" x="519.041117" y="367.442001"/>
  <use xlink:href="#glyph0-17" x="522.740571" y="367.442001"/>
  <use xlink:href="#glyph0-18" x="527.191102" y="367.442001"/>
</g>
<g style="fill:rgb(100%,100%,100%);fill-opacity:1;">
  <use xlink:href="#glyph0-20" x="531.712746" y="367.442001"/>
  <use xlink:href="#glyph0-2" x="534.037889" y="367.442001"/>
  <use xlink:href="#glyph0-22" x="536.019454" y="367.442001"/>
  <use xlink:href="#glyph0-5" x="538.736116" y="367.442001"/>
</g>
<path style=" stroke:none;fill-rule:nonzero;fill:rgb(10.980225%,83.137512%,77.6474%);fill-opacity:1;" d="M 268.144531 289.746094 C 267.859375 285.996094 264.722656 283.03125 260.902344 283.03125 C 256.890625 283.03125 253.628906 286.292969 253.628906 290.304688 L 253.628906 301.089844 C 253.628906 301.300781 253.800781 301.472656 254.011719 301.472656 C 254.222656 301.472656 254.394531 301.300781 254.394531 301.089844 L 254.394531 290.304688 C 254.394531 286.714844 257.3125 283.796875 260.902344 283.796875 C 262.570312 283.796875 264.089844 284.433594 265.242188 285.472656 C 264.484375 285.074219 263.628906 284.847656 262.714844 284.847656 C 259.832031 284.847656 257.46875 287.097656 257.277344 289.9375 C 257.265625 290.058594 257.257812 290.179688 257.257812 290.304688 L 257.257812 301.089844 C 257.257812 301.300781 257.429688 301.472656 257.640625 301.472656 C 257.851562 301.472656 258.023438 301.300781 258.023438 301.089844 L 258.023438 290.304688 C 258.023438 288.746094 259.289062 287.480469 260.84375 287.480469 C 261.527344 287.480469 262.148438 287.722656 262.636719 288.125 C 262.5 288.097656 262.359375 288.082031 262.210938 288.082031 C 260.988281 288.082031 259.992188 289.078125 259.992188 290.304688 L 259.992188 301.085938 C 259.992188 301.296875 260.164062 301.46875 260.375 301.46875 C 260.585938 301.46875 260.757812 301.296875 260.757812 301.085938 L 260.757812 290.304688 C 260.757812 289.5 261.410156 288.847656 262.210938 288.847656 C 263.015625 288.847656 263.667969 289.5 263.667969 290.304688 L 263.667969 301.089844 C 263.667969 301.300781 263.839844 301.472656 264.050781 301.472656 C 264.261719 301.472656 264.433594 301.300781 264.433594 301.089844 L 264.433594 290.304688 C 264.433594 290.226562 264.429688 290.152344 264.421875 290.078125 C 264.304688 288.203125 262.746094 286.714844 260.84375 286.714844 C 260.308594 286.714844 259.800781 286.839844 259.34375 287.050781 C 260.195312 286.164062 261.390625 285.613281 262.714844 285.613281 C 265.304688 285.613281 267.40625 287.714844 267.40625 290.304688 L 267.40625 301.089844 C 267.40625 301.300781 267.578125 301.472656 267.789062 301.472656 C 268 301.472656 268.171875 301.300781 268.171875 301.089844 L 268.171875 290.304688 C 268.171875 290.117188 268.164062 289.929688 268.144531 289.746094 "/>
<path style=" stroke:none;fill-rule:nonzero;fill:rgb(10.980225%,83.137512%,77.6474%);fill-opacity:1;" d="M 274.777344 332.480469 L 274.777344 334.375 L 275.789062 334.375 C 276.453125 334.375 276.804688 334.019531 276.804688 333.414062 C 276.804688 332.8125 276.445312 332.480469 275.800781 332.480469 Z M 274.777344 335.234375 L 274.777344 337.136719 L 273.808594 337.136719 L 273.808594 331.621094 L 275.992188 331.621094 C 277.101562 331.621094 277.816406 332.34375 277.816406 333.425781 C 277.816406 334.488281 277.09375 335.234375 275.992188 335.234375 Z M 274.777344 335.234375 "/>
<path style=" stroke:none;fill-rule:nonzero;fill:rgb(10.980225%,83.137512%,77.6474%);fill-opacity:1;" d="M 280.691406 335.628906 L 280.691406 335.433594 L 279.910156 335.492188 C 279.339844 335.546875 279.117188 335.734375 279.117188 336.035156 C 279.117188 336.375 279.34375 336.542969 279.761719 336.542969 C 280.328125 336.542969 280.691406 336.203125 280.691406 335.628906 M 278.183594 336.074219 C 278.183594 335.386719 278.679688 334.957031 279.566406 334.890625 L 280.683594 334.804688 L 280.683594 334.722656 C 280.683594 334.214844 280.378906 334.011719 279.910156 334.011719 C 279.367188 334.011719 279.066406 334.238281 279.066406 334.632812 L 278.28125 334.632812 C 278.28125 333.824219 278.945312 333.296875 279.957031 333.296875 C 280.960938 333.296875 281.582031 333.839844 281.582031 334.875 L 281.582031 337.140625 L 280.773438 337.140625 L 280.703125 336.585938 C 280.546875 336.972656 280.039062 337.238281 279.460938 337.238281 C 278.667969 337.238281 278.183594 336.777344 278.183594 336.074219 "/>
<path style=" stroke:none;fill-rule:nonzero;fill:rgb(10.980225%,83.137512%,77.6474%);fill-opacity:1;" d="M 283.078125 336.007812 C 283.085938 336.332031 283.328125 336.535156 283.75 336.535156 C 284.179688 336.535156 284.414062 336.359375 284.414062 336.089844 C 284.414062 335.902344 284.316406 335.765625 283.984375 335.6875 L 283.3125 335.53125 C 282.640625 335.378906 282.316406 335.0625 282.316406 334.464844 C 282.316406 333.734375 282.933594 333.296875 283.796875 333.296875 C 284.632812 333.296875 285.199219 333.777344 285.207031 334.503906 L 284.332031 334.503906 C 284.324219 334.1875 284.113281 333.984375 283.757812 333.984375 C 283.394531 333.984375 283.183594 334.148438 283.183594 334.429688 C 283.183594 334.640625 283.351562 334.777344 283.667969 334.851562 L 284.339844 335.007812 C 284.964844 335.152344 285.28125 335.441406 285.28125 336.011719 C 285.28125 336.769531 284.640625 337.238281 283.71875 337.238281 C 282.792969 337.238281 282.203125 336.738281 282.203125 336.007812 Z M 283.078125 336.007812 "/>
<path style=" stroke:none;fill-rule:nonzero;fill:rgb(10.980225%,83.137512%,77.6474%);fill-opacity:1;" d="M 286.335938 337.140625 L 286.335938 334.179688 L 285.617188 334.179688 L 285.617188 333.410156 L 286.335938 333.410156 L 286.335938 332.246094 L 287.253906 332.246094 L 287.253906 333.410156 L 287.980469 333.410156 L 287.980469 334.179688 L 287.253906 334.179688 L 287.253906 337.140625 Z M 286.335938 337.140625 "/>
<path style=" stroke:none;fill-rule:nonzero;fill:rgb(10.980225%,83.137512%,77.6474%);fill-opacity:1;" d="M 288.554688 333.410156 L 289.476562 333.410156 L 289.476562 337.140625 L 288.554688 337.140625 Z M 288.449219 332.101562 C 288.449219 331.792969 288.699219 331.550781 289.015625 331.550781 C 289.316406 331.550781 289.566406 331.792969 289.566406 332.101562 C 289.566406 332.414062 289.316406 332.660156 289.015625 332.660156 C 288.699219 332.660156 288.449219 332.414062 288.449219 332.101562 "/>
<path style=" stroke:none;fill-rule:nonzero;fill:rgb(10.980225%,83.137512%,77.6474%);fill-opacity:1;" d="M 292.074219 333.296875 C 293.09375 333.296875 293.789062 333.863281 293.886719 334.761719 L 292.964844 334.761719 C 292.859375 334.335938 292.550781 334.117188 292.113281 334.117188 C 291.523438 334.117188 291.128906 334.5625 291.128906 335.265625 C 291.128906 335.96875 291.492188 336.40625 292.082031 336.40625 C 292.542969 336.40625 292.867188 336.179688 292.964844 335.773438 L 293.894531 335.773438 C 293.78125 336.640625 293.054688 337.238281 292.082031 337.238281 C 290.949219 337.238281 290.210938 336.449219 290.210938 335.265625 C 290.210938 334.109375 290.972656 333.296875 292.074219 333.296875 "/>
<path style=" stroke:none;fill-rule:nonzero;fill:rgb(10.980225%,83.137512%,77.6474%);fill-opacity:1;" d="M 296.230469 333.296875 C 297.25 333.296875 297.941406 333.863281 298.042969 334.761719 L 297.121094 334.761719 C 297.015625 334.335938 296.703125 334.117188 296.265625 334.117188 C 295.675781 334.117188 295.285156 334.5625 295.285156 335.265625 C 295.285156 335.96875 295.648438 336.40625 296.234375 336.40625 C 296.695312 336.40625 297.023438 336.179688 297.121094 335.773438 L 298.046875 335.773438 C 297.9375 336.640625 297.210938 337.238281 296.234375 337.238281 C 295.105469 337.238281 294.363281 336.449219 294.363281 335.265625 C 294.363281 334.109375 295.125 333.296875 296.230469 333.296875 "/>
<path style=" stroke:none;fill-rule:nonzero;fill:rgb(10.980225%,83.137512%,77.6474%);fill-opacity:1;" d="M 299.417969 334.902344 L 301.289062 334.902344 C 301.289062 334.390625 300.933594 334.050781 300.382812 334.050781 C 299.839844 334.050781 299.507812 334.34375 299.417969 334.902344 M 298.519531 335.273438 C 298.519531 334.105469 299.28125 333.296875 300.375 333.296875 C 301.492188 333.296875 302.203125 334.042969 302.203125 335.207031 L 302.203125 335.484375 L 299.394531 335.492188 C 299.464844 336.148438 299.808594 336.480469 300.421875 336.480469 C 300.925781 336.480469 301.261719 336.285156 301.367188 335.929688 L 302.21875 335.929688 C 302.058594 336.746094 301.378906 337.238281 300.40625 337.238281 C 299.296875 337.238281 298.519531 336.429688 298.519531 335.273438 "/>
<path style=" stroke:none;fill-rule:nonzero;fill:rgb(10.980225%,83.137512%,77.6474%);fill-opacity:1;" d="M 305.285156 334.246094 L 304.945312 334.246094 C 304.28125 334.246094 303.867188 334.601562 303.867188 335.328125 L 303.867188 337.136719 L 302.945312 337.136719 L 302.945312 333.414062 L 303.8125 333.414062 L 303.867188 333.960938 C 304.027344 333.589844 304.378906 333.339844 304.878906 333.339844 C 305.007812 333.339844 305.136719 333.355469 305.285156 333.394531 Z M 305.285156 334.246094 "/>
<path style=" stroke:none;fill-rule:nonzero;fill:rgb(10.980225%,83.137512%,77.6474%);fill-opacity:1;" d="M 305.914062 333.410156 L 306.835938 333.410156 L 306.835938 337.140625 L 305.914062 337.140625 Z M 305.808594 332.101562 C 305.808594 331.792969 306.058594 331.550781 306.375 331.550781 C 306.675781 331.550781 306.925781 331.792969 306.925781 332.101562 C 306.925781 332.414062 306.675781 332.660156 306.375 332.660156 C 306.058594 332.660156 305.808594 332.414062 305.808594 332.101562 "/>
<path style=" stroke:none;fill-rule:nonzero;fill:rgb(10.980225%,83.137512%,77.6474%);fill-opacity:1;" d="M 310.128906 335.628906 L 310.128906 335.433594 L 309.351562 335.492188 C 308.777344 335.546875 308.558594 335.734375 308.558594 336.035156 C 308.558594 336.375 308.785156 336.542969 309.199219 336.542969 C 309.765625 336.542969 310.128906 336.203125 310.128906 335.628906 M 307.621094 336.074219 C 307.621094 335.386719 308.121094 334.957031 309.003906 334.890625 L 310.121094 334.804688 L 310.121094 334.722656 C 310.121094 334.214844 309.820312 334.011719 309.351562 334.011719 C 308.808594 334.011719 308.503906 334.238281 308.503906 334.632812 L 307.71875 334.632812 C 307.71875 333.824219 308.382812 333.296875 309.394531 333.296875 C 310.398438 333.296875 311.019531 333.839844 311.019531 334.875 L 311.019531 337.140625 L 310.210938 337.140625 L 310.144531 336.585938 C 309.984375 336.972656 309.480469 337.238281 308.898438 337.238281 C 308.105469 337.238281 307.621094 336.777344 307.621094 336.074219 "/>
<path style=" stroke:none;fill-rule:nonzero;fill:rgb(10.980225%,83.137512%,77.6474%);fill-opacity:1;" d="M 315.070312 337.140625 L 314.101562 337.140625 L 314.101562 331.621094 L 315.070312 331.621094 Z M 315.070312 337.140625 "/>
<path style=" stroke:none;fill-rule:nonzero;fill:rgb(10.980225%,83.137512%,77.6474%);fill-opacity:1;" d="M 316.746094 336.007812 C 316.753906 336.332031 316.996094 336.535156 317.417969 336.535156 C 317.851562 336.535156 318.082031 336.359375 318.082031 336.089844 C 318.082031 335.902344 317.984375 335.765625 317.652344 335.6875 L 316.980469 335.53125 C 316.308594 335.378906 315.984375 335.0625 315.984375 334.464844 C 315.984375 333.734375 316.601562 333.296875 317.464844 333.296875 C 318.300781 333.296875 318.867188 333.777344 318.875 334.503906 L 318 334.503906 C 317.992188 334.1875 317.78125 333.984375 317.425781 333.984375 C 317.0625 333.984375 316.851562 334.148438 316.851562 334.429688 C 316.851562 334.640625 317.019531 334.777344 317.335938 334.851562 L 318.007812 335.007812 C 318.632812 335.152344 318.953125 335.441406 318.953125 336.011719 C 318.953125 336.769531 318.308594 337.238281 317.390625 337.238281 C 316.460938 337.238281 315.871094 336.738281 315.871094 336.007812 Z M 316.746094 336.007812 "/>
<path style=" stroke:none;fill-rule:nonzero;fill:rgb(10.980225%,83.137512%,77.6474%);fill-opacity:1;" d="M 320.335938 334.902344 L 322.207031 334.902344 C 322.207031 334.390625 321.851562 334.050781 321.300781 334.050781 C 320.757812 334.050781 320.425781 334.34375 320.335938 334.902344 M 319.4375 335.273438 C 319.4375 334.105469 320.199219 333.296875 321.292969 333.296875 C 322.410156 333.296875 323.121094 334.042969 323.121094 335.207031 L 323.121094 335.484375 L 320.3125 335.492188 C 320.378906 336.148438 320.726562 336.480469 321.339844 336.480469 C 321.84375 336.480469 322.175781 336.285156 322.285156 335.929688 L 323.136719 335.929688 C 322.976562 336.746094 322.296875 337.238281 321.324219 337.238281 C 320.214844 337.238281 319.4375 336.429688 319.4375 335.273438 "/>
<path style=" stroke:none;fill-rule:nonzero;fill:rgb(10.980225%,83.137512%,77.6474%);fill-opacity:1;" d="M 325.636719 336.40625 C 326.269531 336.40625 326.707031 335.945312 326.707031 335.265625 C 326.707031 334.585938 326.269531 334.125 325.636719 334.125 C 325.003906 334.125 324.566406 334.585938 324.566406 335.265625 C 324.566406 335.945312 325.003906 336.40625 325.636719 336.40625 M 325.636719 333.304688 C 326.792969 333.304688 327.628906 334.105469 327.628906 335.265625 C 327.628906 336.429688 326.792969 337.230469 325.636719 337.230469 C 324.480469 337.230469 323.644531 336.429688 323.644531 335.265625 C 323.644531 334.105469 324.480469 333.304688 325.636719 333.304688 "/>
<path style=" stroke:none;fill-rule:nonzero;fill:rgb(23.449707%,22.02301%,21.525574%);fill-opacity:1;" d="M 280.601562 317.304688 C 280.601562 319.996094 278.484375 321.296875 276.25 321.296875 C 274.492188 321.296875 273.433594 320.296875 273.433594 319.089844 C 273.433594 317.363281 274.824219 316.578125 276.730469 316.246094 L 280.601562 315.609375 Z M 272.234375 311.101562 L 280.601562 311.101562 L 280.601562 313.402344 L 276.488281 313.976562 C 273.253906 314.460938 270.109375 315.550781 270.109375 319.179688 C 270.109375 321.902344 272.226562 323.773438 275.460938 323.773438 C 277.910156 323.773438 279.363281 322.929688 280.601562 321.355469 L 280.601562 323.414062 L 283.929688 323.414062 L 283.929688 308.289062 L 272.234375 308.289062 Z M 272.234375 311.101562 "/>
<path style=" stroke:none;fill-rule:nonzero;fill:rgb(23.449707%,22.02301%,21.525574%);fill-opacity:1;" d="M 290.621094 320.023438 L 298.363281 312.433594 L 298.363281 308.289062 L 286.691406 308.289062 L 286.691406 311.253906 L 294.433594 311.253906 L 294.433594 311.675781 L 286.691406 319.269531 L 286.691406 323.414062 L 298.386719 323.414062 L 298.386719 320.449219 L 290.621094 320.449219 Z M 290.621094 320.023438 "/>
<path style=" stroke:none;fill-rule:nonzero;fill:rgb(23.449707%,22.02301%,21.525574%);fill-opacity:1;" d="M 326.023438 317.304688 C 326.023438 319.996094 323.90625 321.296875 321.667969 321.296875 C 319.914062 321.296875 318.855469 320.296875 318.855469 319.089844 C 318.855469 317.363281 320.246094 316.578125 322.152344 316.246094 L 326.023438 315.609375 Z M 317.65625 311.101562 L 326.023438 311.101562 L 326.023438 313.402344 L 321.910156 313.976562 C 318.675781 314.460938 315.527344 315.550781 315.527344 319.179688 C 315.527344 321.902344 317.644531 323.773438 320.882812 323.773438 C 323.332031 323.773438 324.78125 322.929688 326.023438 321.355469 L 326.023438 323.414062 L 329.351562 323.414062 L 329.351562 308.289062 L 317.65625 308.289062 Z M 317.65625 311.101562 "/>
<path style=" stroke:none;fill-rule:nonzero;fill:rgb(23.449707%,22.02301%,21.525574%);fill-opacity:1;" d="M 305.078125 320.023438 L 312.820312 312.433594 L 312.820312 308.289062 L 301.144531 308.289062 L 301.144531 311.253906 L 308.886719 311.253906 L 308.886719 311.675781 L 301.144531 319.269531 L 301.144531 323.414062 L 312.839844 323.414062 L 312.839844 320.449219 L 305.078125 320.449219 Z M 305.078125 320.023438 "/>
<path style=" stroke:none;fill-rule:nonzero;fill:rgb(23.449707%,22.02301%,21.525574%);fill-opacity:1;" d="M 332.609375 314.730469 L 332.609375 323.414062 L 335.933594 323.414062 L 335.933594 314.851562 C 335.933594 312.402344 337.386719 311.074219 339.503906 311.074219 C 340.339844 311.074219 341.09375 311.28125 341.710938 311.671875 L 341.710938 308.710938 C 340.8125 308.207031 339.730469 307.925781 338.628906 307.925781 C 335.210938 307.925781 332.609375 310.285156 332.609375 314.730469 "/>
<path style=" stroke:none;fill-rule:nonzero;fill:rgb(23.449707%,22.02301%,21.525574%);fill-opacity:1;" d="M 343.9375 308.289062 L 343.9375 310.378906 C 343.9375 310.375 343.9375 310.375 343.933594 310.375 L 343.933594 315.234375 C 343.9375 315.25 343.9375 315.261719 343.9375 315.277344 L 343.9375 323.414062 L 347.265625 323.414062 L 347.265625 308.289062 Z M 343.9375 308.289062 "/>
<path style=" stroke:none;fill-rule:nonzero;fill:rgb(23.449707%,22.02301%,21.525574%);fill-opacity:1;" d="M 260.558594 307.898438 C 256.753906 308.078125 253.824219 311.359375 253.824219 315.167969 L 253.824219 323.410156 L 257.152344 323.410156 L 257.152344 315.125 C 257.152344 313.074219 258.734375 311.28125 260.785156 311.222656 C 262.910156 311.15625 264.652344 312.859375 264.652344 314.96875 L 264.652344 323.410156 C 266.488281 323.410156 267.976562 321.921875 267.976562 320.085938 L 267.976562 314.96875 C 267.976562 310.945312 264.621094 307.707031 260.558594 307.898438 "/>
<path style=" stroke:none;fill-rule:nonzero;fill:rgb(23.449707%,22.02301%,21.525574%);fill-opacity:1;" d="M 292.195312 294.714844 L 296.074219 294.078125 L 296.074219 295.777344 C 296.074219 298.472656 293.953125 299.777344 291.710938 299.777344 C 289.953125 299.777344 288.890625 298.777344 288.890625 297.5625 C 288.890625 295.835938 290.285156 295.046875 292.195312 294.714844 M 290.921875 302.261719 C 293.375 302.261719 294.828125 301.410156 296.074219 299.835938 L 296.074219 301.898438 L 299.40625 301.898438 L 299.40625 286.746094 L 287.042969 286.746094 L 287.042969 289.5625 L 296.074219 289.5625 L 296.074219 291.867188 L 291.953125 292.441406 C 288.710938 292.925781 285.558594 294.019531 285.558594 297.652344 C 285.558594 300.382812 287.679688 302.261719 290.921875 302.261719 "/>
<path style=" stroke:none;fill-rule:nonzero;fill:rgb(23.449707%,22.02301%,21.525574%);fill-opacity:1;" d="M 311.527344 299.230469 C 308.742188 299.230469 306.679688 297.109375 306.679688 294.320312 C 306.679688 291.535156 308.742188 289.410156 311.527344 289.410156 C 314.316406 289.410156 316.378906 291.535156 316.378906 294.320312 C 316.378906 297.109375 314.316406 299.230469 311.527344 299.230469 M 312.226562 286.382812 C 309.953125 286.382812 308.011719 287.289062 306.679688 288.804688 L 306.679688 279.777344 L 303.347656 279.777344 L 303.347656 301.898438 L 306.679688 301.898438 L 306.679688 299.835938 C 308.011719 301.351562 309.953125 302.261719 312.226562 302.261719 C 316.589844 302.261719 319.710938 298.925781 319.710938 294.320312 C 319.710938 289.714844 316.589844 286.382812 312.226562 286.382812 "/>
<path style=" stroke:none;fill-rule:nonzero;fill:rgb(23.449707%,22.02301%,21.525574%);fill-opacity:1;" d="M 323.984375 301.898438 L 327.320312 301.898438 L 327.320312 286.746094 L 321.800781 286.746094 L 321.800781 289.835938 L 323.984375 289.835938 Z M 323.984375 301.898438 "/>
<path style=" stroke:none;fill-rule:nonzero;fill:rgb(23.449707%,22.02301%,21.525574%);fill-opacity:1;" d="M 325.652344 283.835938 C 326.773438 283.835938 327.621094 283.019531 327.621094 281.867188 C 327.621094 280.714844 326.773438 279.898438 325.652344 279.898438 C 324.53125 279.898438 323.683594 280.714844 323.683594 281.867188 C 323.683594 283.019531 324.53125 283.835938 325.652344 283.835938 "/>
<path style=" stroke:none;fill-rule:nonzero;fill:rgb(23.449707%,22.02301%,21.525574%);fill-opacity:1;" d="M 333.894531 294.320312 C 333.894531 291.59375 335.894531 289.472656 338.683594 289.472656 C 341.46875 289.472656 343.46875 291.59375 343.46875 294.320312 C 343.46875 297.046875 341.46875 299.167969 338.683594 299.167969 C 335.894531 299.167969 333.894531 297.046875 333.894531 294.320312 M 346.804688 294.320312 C 346.804688 289.746094 343.289062 286.382812 338.683594 286.382812 C 334.074219 286.382812 330.5625 289.746094 330.5625 294.320312 C 330.5625 298.894531 334.074219 302.261719 338.683594 302.261719 C 343.289062 302.261719 346.804688 298.894531 346.804688 294.320312 "/>
<path style=" stroke:none;fill-rule:nonzero;fill:rgb(23.449707%,22.02301%,21.525574%);fill-opacity:1;" d="M 276.617188 301.898438 L 279.949219 301.898438 L 279.949219 289.714844 L 283.738281 289.714844 L 283.738281 286.746094 L 280.101562 286.746094 C 280.101562 284.019531 282.097656 281.898438 284.886719 281.898438 L 284.886719 278.804688 C 280.28125 278.804688 276.765625 282.167969 276.765625 286.746094 L 273.433594 286.746094 L 273.433594 289.714844 L 276.617188 289.714844 Z M 276.617188 301.898438 "/>
<path style=" stroke:none;fill-rule:nonzero;fill:rgb(18.521118%,17.532349%,17.060852%);fill-opacity:1;" d="M 578.027344 303.707031 C 577.566406 297.652344 572.5 292.863281 566.332031 292.863281 C 559.855469 292.863281 554.585938 298.132812 554.585938 304.609375 L 554.585938 322.027344 C 554.585938 322.367188 554.863281 322.644531 555.203125 322.644531 C 555.546875 322.644531 555.820312 322.367188 555.820312 322.027344 L 555.820312 304.609375 C 555.820312 298.8125 560.535156 294.097656 566.332031 294.097656 C 569.027344 294.097656 571.480469 295.128906 573.339844 296.804688 C 572.121094 296.164062 570.734375 295.792969 569.261719 295.792969 C 564.601562 295.792969 560.785156 299.433594 560.476562 304.015625 C 560.457031 304.210938 560.449219 304.40625 560.449219 304.609375 L 560.449219 322.027344 C 560.449219 322.367188 560.726562 322.644531 561.066406 322.644531 C 561.40625 322.644531 561.683594 322.367188 561.683594 322.027344 L 561.683594 304.609375 C 561.683594 302.097656 563.730469 300.050781 566.242188 300.050781 C 567.339844 300.050781 568.347656 300.441406 569.132812 301.089844 C 568.910156 301.046875 568.683594 301.023438 568.449219 301.023438 C 566.472656 301.023438 564.863281 302.632812 564.863281 304.609375 L 564.863281 322.023438 C 564.863281 322.363281 565.140625 322.640625 565.480469 322.640625 C 565.824219 322.640625 566.101562 322.363281 566.101562 322.023438 L 566.101562 304.609375 C 566.101562 303.3125 567.152344 302.257812 568.449219 302.257812 C 569.746094 302.257812 570.796875 303.3125 570.796875 304.609375 L 570.796875 322.027344 C 570.796875 322.367188 571.074219 322.644531 571.417969 322.644531 C 571.757812 322.644531 572.035156 322.367188 572.035156 322.027344 L 572.035156 304.609375 C 572.035156 304.484375 572.027344 304.363281 572.015625 304.242188 C 571.824219 301.21875 569.3125 298.816406 566.242188 298.816406 C 565.375 298.816406 564.550781 299.011719 563.8125 299.355469 C 565.191406 297.925781 567.121094 297.03125 569.261719 297.03125 C 573.4375 297.03125 576.839844 300.429688 576.839844 304.609375 L 576.839844 322.027344 C 576.839844 322.367188 577.113281 322.644531 577.457031 322.644531 C 577.796875 322.644531 578.074219 322.367188 578.074219 322.027344 L 578.074219 304.609375 C 578.074219 304.304688 578.058594 304.003906 578.027344 303.707031 "/>
<g style="fill:rgb(13.729858%,12.159729%,12.548828%);fill-opacity:1;">
  <use xlink:href="#glyph1-1" x="38.520521" y="563.452505"/>
  <use xlink:href="#glyph1-2" x="45.939498" y="563.452505"/>
  <use xlink:href="#glyph1-3" x="48.911883" y="563.452505"/>
  <use xlink:href="#glyph1-4" x="56.270932" y="563.452505"/>
  <use xlink:href="#glyph1-2" x="59.279273" y="563.452505"/>
  <use xlink:href="#glyph1-5" x="62.251658" y="563.452505"/>
</g>
<g style="fill:rgb(13.729858%,12.159729%,12.548828%);fill-opacity:1;">
  <use xlink:href="#glyph1-6" x="68.867612" y="563.452505"/>
</g>
<g style="fill:rgb(13.729858%,12.159729%,12.548828%);fill-opacity:1;">
  <use xlink:href="#glyph1-6" x="73.109253" y="563.452505"/>
</g>
<g style="fill:rgb(13.729858%,12.159729%,12.548828%);fill-opacity:1;">
  <use xlink:href="#glyph1-7" x="77.124369" y="563.452505"/>
  <use xlink:href="#glyph1-8" x="84.267681" y="563.452505"/>
  <use xlink:href="#glyph1-9" x="87.503745" y="563.452505"/>
  <use xlink:href="#glyph1-10" x="94.922722" y="563.452505"/>
  <use xlink:href="#glyph1-8" x="101.490734" y="563.452505"/>
  <use xlink:href="#glyph1-11" x="104.726798" y="563.452505"/>
  <use xlink:href="#glyph1-2" x="111.150985" y="563.452505"/>
  <use xlink:href="#glyph1-12" x="114.12337" y="563.452505"/>
  <use xlink:href="#glyph1-2" x="119.67262" y="563.452505"/>
  <use xlink:href="#glyph1-6" x="122.645005" y="563.452505"/>
</g>
<g style="fill:rgb(13.729858%,12.159729%,12.548828%);fill-opacity:1;">
  <use xlink:href="#glyph1-10" x="126.684093" y="563.452505"/>
  <use xlink:href="#glyph1-8" x="133.252104" y="563.452505"/>
  <use xlink:href="#glyph1-13" x="136.488169" y="563.452505"/>
  <use xlink:href="#glyph1-10" x="143.907145" y="563.452505"/>
  <use xlink:href="#glyph1-12" x="150.475157" y="563.452505"/>
  <use xlink:href="#glyph1-6" x="156.024408" y="563.452505"/>
  <use xlink:href="#glyph1-2" x="160.099451" y="563.452505"/>
  <use xlink:href="#glyph1-14" x="163.071836" y="563.452505"/>
  <use xlink:href="#glyph1-14" x="169.663819" y="563.452505"/>
  <use xlink:href="#glyph1-5" x="176.255801" y="563.452505"/>
  <use xlink:href="#glyph1-15" x="182.931682" y="563.452505"/>
  <use xlink:href="#glyph1-2" x="187.641953" y="563.452505"/>
  <use xlink:href="#glyph1-10" x="190.614338" y="563.452505"/>
</g>
</g>
</svg>
